<svg xmlns="http://www.w3.org/2000/svg" xmlns:xlink="http://www.w3.org/1999/xlink" width="500" zoomAndPan="magnify" viewBox="0 0 375 374.999991" height="500" preserveAspectRatio="xMidYMid meet" version="1.0"><defs><g/><clipPath id="d375a9dbc9"><path d="M 129.097656 157.40625 L 245.992188 157.40625 L 245.992188 222.65625 L 129.097656 222.65625 Z M 129.097656 157.40625 " clip-rule="nonzero"/></clipPath><clipPath id="ce02698b7e"><path d="M 129.097656 169 L 245.992188 169 L 245.992188 222.65625 L 129.097656 222.65625 Z M 129.097656 169 " clip-rule="nonzero"/></clipPath><clipPath id="46baa9888d"><path d="M 129.097656 157.40625 L 245 157.40625 L 245 222.65625 L 129.097656 222.65625 Z M 129.097656 157.40625 " clip-rule="nonzero"/></clipPath></defs><g clip-path="url(#d375a9dbc9)"><path fill="#2a7c69" d="M 233.496094 208.945312 C 233.496094 211.761719 233.496094 214.578125 233.496094 217.394531 C 233.496094 217.996094 232.5625 217.996094 232.5625 217.394531 C 232.5625 214.578125 232.5625 211.761719 232.5625 208.945312 C 232.5625 208.34375 233.496094 208.34375 233.496094 208.945312 Z M 242.558594 208.945312 C 242.558594 211.761719 242.558594 214.578125 242.558594 217.394531 C 242.558594 217.996094 243.492188 217.996094 243.492188 217.394531 C 243.492188 214.578125 243.492188 211.761719 243.492188 208.945312 C 243.492188 208.34375 242.558594 208.34375 242.558594 208.945312 Z M 237.5625 208.945312 C 237.5625 211.761719 237.5625 214.578125 237.5625 217.394531 C 237.5625 217.996094 238.496094 217.996094 238.496094 217.394531 C 238.496094 214.578125 238.496094 211.761719 238.496094 208.945312 C 238.496094 208.34375 237.5625 208.34375 237.5625 208.945312 Z M 222.570312 208.945312 C 222.570312 211.761719 222.570312 214.578125 222.570312 217.394531 C 222.570312 217.996094 223.503906 217.996094 223.503906 217.394531 C 223.503906 214.578125 223.503906 211.761719 223.503906 208.945312 C 223.503906 208.34375 222.570312 208.34375 222.570312 208.945312 Z M 217.570312 208.945312 C 217.570312 211.761719 217.570312 214.578125 217.570312 217.394531 C 217.570312 217.996094 218.503906 217.996094 218.503906 217.394531 C 218.503906 214.578125 218.503906 211.761719 218.503906 208.945312 C 218.503906 208.34375 217.570312 208.34375 217.570312 208.945312 Z M 224.710938 232.960938 C 215.089844 232.960938 205.46875 232.960938 195.84375 232.960938 C 186.273438 232.960938 176.699219 232.960938 167.125 232.960938 C 161.726562 232.960938 156.324219 232.960938 150.925781 232.960938 C 150.324219 232.960938 150.324219 233.894531 150.925781 233.894531 C 160.546875 233.894531 170.167969 233.894531 179.792969 233.894531 C 189.363281 233.894531 198.9375 233.894531 208.511719 233.894531 C 213.910156 233.894531 219.3125 233.894531 224.710938 233.894531 C 225.3125 233.894531 225.3125 232.960938 224.710938 232.960938 Z M 245.394531 222 C 240.339844 222 235.28125 222 230.226562 222 C 229.511719 221.574219 228.699219 221.367188 227.890625 221.460938 C 227.367188 221.523438 226.863281 221.714844 226.402344 222 C 217.714844 222 209.03125 222 200.34375 222 C 185.40625 222 170.464844 222 155.523438 222 C 147.097656 222 138.671875 222 130.242188 222 C 129.640625 222 129.640625 222.933594 130.242188 222.933594 C 145.257812 222.933594 160.273438 222.933594 175.292969 222.933594 C 190.230469 222.933594 205.171875 222.933594 220.109375 222.933594 C 221.851562 222.933594 223.59375 222.933594 225.335938 222.933594 C 224.585938 223.8125 224.113281 224.988281 224.113281 226.207031 C 223.253906 225.09375 221.871094 224.527344 220.578125 224.753906 C 219.496094 224.941406 218.503906 225.679688 217.90625 226.710938 C 217.242188 226.710938 216.578125 226.710938 215.917969 226.710938 C 215.621094 226.664062 215.320312 226.648438 215.023438 226.695312 C 215 226.699219 214.976562 226.707031 214.953125 226.710938 C 209.359375 226.710938 203.769531 226.710938 198.175781 226.710938 C 185.824219 226.710938 173.46875 226.710938 161.113281 226.710938 C 154.144531 226.710938 147.175781 226.710938 140.207031 226.710938 C 139.605469 226.710938 139.605469 227.644531 140.207031 227.644531 C 152.625 227.644531 165.042969 227.644531 177.460938 227.644531 C 189.488281 227.644531 201.515625 227.644531 213.546875 227.644531 C 213.355469 227.921875 213.230469 228.242188 213.207031 228.597656 L 213.175781 229.546875 L 232.523438 229.457031 L 232.523438 229.425781 L 238.917969 229.425781 C 238.824219 228.367188 238.695312 227.226562 237.980469 226.441406 C 237.65625 226.085938 237.234375 225.832031 236.792969 225.648438 C 235.65625 225.175781 234.347656 225.144531 233.191406 225.566406 C 232.972656 225.648438 232.753906 225.753906 232.550781 225.878906 C 232.535156 225.652344 232.507812 225.429688 232.46875 225.210938 C 232.304688 224.34375 231.898438 223.558594 231.347656 222.933594 C 236.03125 222.933594 240.710938 222.933594 245.394531 222.933594 C 245.996094 222.933594 245.996094 222 245.394531 222 Z M 164.207031 218.964844 C 164.078125 218.378906 163.84375 217.835938 163.535156 217.347656 C 163.535156 217.050781 163.535156 216.753906 163.535156 216.460938 L 167.597656 216.460938 C 167.597656 216.773438 167.597656 217.082031 167.597656 217.394531 C 167.597656 217.996094 168.53125 217.996094 168.53125 217.394531 C 168.53125 217.082031 168.53125 216.773438 168.53125 216.460938 L 172.597656 216.460938 C 172.597656 216.773438 172.597656 217.082031 172.597656 217.394531 C 172.597656 217.996094 173.53125 217.996094 173.53125 217.394531 C 173.53125 217.082031 173.53125 216.773438 173.53125 216.460938 L 177.59375 216.460938 C 177.59375 216.773438 177.59375 217.082031 177.59375 217.394531 C 177.59375 217.996094 178.527344 217.996094 178.527344 217.394531 C 178.527344 217.082031 178.527344 216.773438 178.527344 216.460938 L 182.589844 216.460938 C 182.589844 216.773438 182.589844 217.082031 182.589844 217.394531 C 182.589844 217.996094 183.523438 217.996094 183.523438 217.394531 C 183.523438 217.082031 183.523438 216.773438 183.523438 216.460938 L 187.589844 216.460938 C 187.589844 216.773438 187.589844 217.082031 187.589844 217.394531 C 187.589844 217.996094 188.519531 217.996094 188.519531 217.394531 C 188.519531 217.082031 188.519531 216.773438 188.519531 216.460938 L 192.585938 216.460938 C 192.585938 216.773438 192.585938 217.082031 192.585938 217.394531 C 192.585938 217.996094 193.519531 217.996094 193.519531 217.394531 C 193.519531 217.082031 193.519531 216.773438 193.519531 216.460938 L 197.582031 216.460938 C 197.582031 216.773438 197.582031 217.082031 197.582031 217.394531 C 197.582031 217.996094 198.515625 217.996094 198.515625 217.394531 C 198.515625 217.082031 198.515625 216.773438 198.515625 216.460938 L 202.578125 216.460938 C 202.578125 216.773438 202.578125 217.082031 202.578125 217.394531 C 202.578125 217.996094 203.511719 217.996094 203.511719 217.394531 C 203.511719 217.082031 203.511719 216.773438 203.511719 216.460938 L 207.578125 216.460938 C 207.578125 216.773438 207.578125 217.082031 207.578125 217.394531 C 207.578125 217.996094 208.511719 217.996094 208.511719 217.394531 C 208.511719 217.082031 208.511719 216.773438 208.511719 216.460938 L 212.574219 216.460938 C 212.574219 216.773438 212.574219 217.082031 212.574219 217.394531 C 212.574219 217.996094 213.507812 217.996094 213.507812 217.394531 C 213.507812 217.082031 213.507812 216.773438 213.507812 216.460938 L 214.46875 216.460938 L 214.46875 192.554688 L 219.546875 192.554688 L 187.488281 174.636719 C 187.488281 173.703125 187.488281 172.769531 187.488281 171.835938 C 188.027344 171.835938 188.566406 171.835938 189.101562 171.835938 C 189.703125 171.835938 189.707031 170.902344 189.101562 170.902344 C 188.566406 170.902344 188.027344 170.902344 187.488281 170.902344 C 187.488281 170.457031 187.488281 170.011719 187.488281 169.570312 C 187.488281 168.96875 186.558594 168.96875 186.558594 169.570312 C 186.558594 170.011719 186.558594 170.457031 186.558594 170.902344 C 186.019531 170.902344 185.480469 170.902344 184.945312 170.902344 C 184.34375 170.902344 184.34375 171.835938 184.945312 171.835938 C 185.480469 171.835938 186.019531 171.835938 186.558594 171.835938 C 186.558594 172.882812 186.558594 173.929688 186.558594 174.976562 L 155.371094 192.554688 L 160.003906 192.554688 L 160.003906 214.851562 C 159.519531 214.742188 159.027344 214.695312 158.539062 214.726562 C 158.539062 212.796875 158.539062 210.871094 158.539062 208.945312 C 158.539062 208.34375 157.605469 208.34375 157.605469 208.945312 C 157.605469 210.921875 157.605469 212.898438 157.605469 214.875 C 157.316406 214.953125 157.035156 215.058594 156.761719 215.195312 C 155.257812 215.953125 154.132812 217.449219 154.15625 219.300781 C 153.949219 218.738281 153.65625 218.234375 153.304688 217.792969 C 153.441406 217.722656 153.539062 217.59375 153.539062 217.394531 C 153.539062 214.578125 153.539062 211.761719 153.539062 208.945312 C 153.539062 208.34375 152.605469 208.34375 152.605469 208.945312 C 152.605469 211.652344 152.605469 214.359375 152.605469 217.066406 C 151.703125 216.285156 150.566406 215.832031 149.40625 215.773438 L 149.40625 180.191406 C 153.050781 182.160156 157.085938 184.757812 160.089844 187.285156 C 160.703125 183.800781 159.953125 180.039062 158.074219 177.183594 C 157.210938 175.878906 156.117188 174.773438 154.882812 173.921875 C 157.746094 171.800781 160.773438 169.964844 163.921875 168.4375 C 161.542969 166.101562 158.269531 164.960938 155.128906 165.371094 C 153.699219 165.558594 152.304688 166.070312 151.039062 166.84375 C 150.890625 166.042969 150.675781 165.253906 150.390625 164.496094 C 149.152344 161.226562 146.648438 158.59375 143.664062 157.425781 C 143.976562 160.535156 144.085938 163.667969 144 166.792969 C 142.757812 166.046875 141.394531 165.554688 139.996094 165.371094 C 136.859375 164.960938 133.582031 166.101562 131.203125 168.4375 C 133.949219 169.769531 136.605469 171.339844 139.140625 173.128906 C 137.914062 173.976562 136.828125 175.074219 135.96875 176.375 C 134.089844 179.230469 133.339844 182.992188 133.953125 186.476562 C 136.882812 184.011719 141.339844 181.945312 145.113281 180.171875 L 145.113281 212.851562 C 144.707031 212.652344 144.28125 212.511719 143.851562 212.441406 C 143.75 212.421875 143.648438 212.410156 143.546875 212.398438 C 143.546875 211.25 143.546875 210.097656 143.546875 208.945312 C 143.546875 208.34375 142.613281 208.34375 142.613281 208.945312 C 142.613281 210.097656 142.613281 211.246094 142.613281 212.394531 C 141.296875 212.511719 140.015625 213.128906 138.964844 214.042969 C 138.832031 213.9375 138.691406 213.839844 138.546875 213.753906 C 138.546875 212.152344 138.546875 210.546875 138.546875 208.945312 C 138.546875 208.34375 137.613281 208.34375 137.613281 208.945312 C 137.613281 210.414062 137.613281 211.886719 137.613281 213.355469 C 136.738281 213.113281 135.789062 213.195312 134.96875 213.617188 C 134.417969 213.902344 133.933594 214.339844 133.550781 214.867188 C 133.550781 212.894531 133.550781 210.917969 133.550781 208.945312 C 133.550781 208.34375 132.617188 208.34375 132.617188 208.945312 C 132.617188 211.726562 132.617188 214.511719 132.617188 217.292969 C 131.953125 217.019531 130.917969 216.707031 130.128906 217.027344 C 128.234375 217.792969 128.394531 220.496094 128.394531 220.496094 L 164.207031 220.496094 Z M 216.832031 176.375 C 214.949219 179.230469 214.199219 182.992188 214.816406 186.476562 C 217.742188 184.011719 222.199219 181.945312 225.972656 180.171875 L 225.972656 218.019531 L 230.269531 218.019531 L 230.269531 180.191406 C 233.910156 182.160156 237.945312 184.757812 240.949219 187.285156 C 241.566406 183.800781 240.8125 180.039062 238.933594 177.183594 C 238.070312 175.878906 236.976562 174.773438 235.742188 173.921875 C 238.605469 171.800781 241.632812 169.964844 244.78125 168.4375 C 242.402344 166.101562 239.128906 164.960938 235.988281 165.371094 C 234.558594 165.558594 233.167969 166.070312 231.898438 166.84375 C 231.75 166.042969 231.539062 165.253906 231.25 164.496094 C 230.015625 161.226562 227.511719 158.59375 224.527344 157.425781 C 224.835938 160.535156 224.945312 163.667969 224.863281 166.792969 C 223.617188 166.046875 222.257812 165.554688 220.855469 165.371094 C 217.71875 164.960938 214.445312 166.101562 212.0625 168.4375 C 214.8125 169.769531 217.464844 171.339844 220 173.128906 C 218.773438 173.976562 217.6875 175.074219 216.832031 176.375 Z M 216.832031 176.375 " fill-opacity="1" fill-rule="nonzero"/></g><path fill="#f0eccb" d="M 168.53125 216.417969 L 172.597656 216.417969 C 172.597656 216.433594 172.597656 216.445312 172.597656 216.460938 L 168.53125 216.460938 C 168.53125 216.445312 168.53125 216.433594 168.53125 216.417969 Z M 203.511719 216.460938 L 207.578125 216.460938 C 207.578125 216.445312 207.578125 216.433594 207.578125 216.417969 L 203.511719 216.417969 C 203.511719 216.433594 203.511719 216.445312 203.511719 216.460938 Z M 187.394531 192.554688 L 160.003906 192.554688 L 160.003906 214.851562 C 160.535156 214.976562 161.058594 215.179688 161.539062 215.453125 C 161.914062 215.667969 162.273438 215.929688 162.601562 216.234375 C 162.601562 213.804688 162.601562 211.375 162.601562 208.945312 C 162.601562 208.34375 163.535156 208.34375 163.535156 208.945312 C 163.535156 211.449219 163.535156 213.953125 163.535156 216.460938 L 167.597656 216.460938 C 167.597656 216.445312 167.597656 216.433594 167.597656 216.417969 L 165.261719 216.417969 L 165.261719 202.058594 C 165.261719 199.6875 167.183594 197.765625 169.554688 197.765625 L 171.679688 197.765625 C 174.050781 197.765625 175.972656 199.6875 175.972656 202.058594 L 175.972656 216.417969 L 173.53125 216.417969 C 173.53125 216.433594 173.53125 216.445312 173.53125 216.460938 L 177.59375 216.460938 C 177.59375 213.953125 177.59375 211.449219 177.59375 208.945312 C 177.59375 208.34375 178.527344 208.34375 178.527344 208.945312 C 178.527344 211.449219 178.527344 213.953125 178.527344 216.460938 L 182.589844 216.460938 C 182.589844 216.445312 182.589844 216.433594 182.589844 216.417969 L 180.597656 216.417969 L 180.597656 199.390625 C 180.597656 199.246094 180.605469 199.097656 180.617188 198.957031 C 180.621094 198.925781 180.625 198.890625 180.628906 198.859375 C 180.640625 198.734375 180.660156 198.605469 180.683594 198.480469 C 180.695312 198.429688 180.707031 198.382812 180.71875 198.332031 C 180.738281 198.246094 180.757812 198.164062 180.78125 198.082031 C 180.808594 197.988281 180.839844 197.894531 180.871094 197.800781 C 180.886719 197.753906 180.902344 197.710938 180.921875 197.667969 C 180.980469 197.511719 181.046875 197.359375 181.121094 197.214844 C 181.121094 197.210938 181.121094 197.210938 181.121094 197.210938 C 181.917969 195.644531 183.542969 194.570312 185.417969 194.570312 L 188.320312 194.570312 C 188.34375 194.570312 188.371094 194.574219 188.394531 194.574219 C 188.515625 194.578125 188.632812 194.582031 188.75 194.59375 C 190.441406 194.742188 191.878906 195.769531 192.613281 197.210938 L 192.617188 197.210938 C 192.625 197.230469 192.632812 197.25 192.644531 197.269531 C 192.707031 197.398438 192.765625 197.53125 192.820312 197.667969 C 192.835938 197.710938 192.851562 197.753906 192.867188 197.800781 C 192.898438 197.894531 192.929688 197.988281 192.957031 198.082031 C 192.980469 198.164062 193.003906 198.246094 193.023438 198.332031 C 193.03125 198.382812 193.042969 198.429688 193.054688 198.480469 C 193.078125 198.605469 193.097656 198.734375 193.113281 198.859375 C 193.113281 198.890625 193.117188 198.925781 193.121094 198.957031 C 193.132812 199.097656 193.140625 199.246094 193.140625 199.390625 L 193.140625 208.503906 C 193.34375 208.539062 193.519531 208.683594 193.519531 208.945312 C 193.519531 211.449219 193.519531 213.953125 193.519531 216.460938 L 197.582031 216.460938 C 197.582031 213.953125 197.582031 211.449219 197.582031 208.945312 C 197.582031 208.773438 197.660156 208.65625 197.765625 208.582031 L 197.765625 202.058594 C 197.765625 199.6875 199.6875 197.765625 202.058594 197.765625 L 204.183594 197.765625 C 206.554688 197.765625 208.476562 199.6875 208.476562 202.058594 L 208.476562 208.769531 C 208.496094 208.820312 208.511719 208.878906 208.511719 208.945312 C 208.511719 211.449219 208.511719 213.953125 208.511719 216.460938 L 212.574219 216.460938 C 212.574219 213.953125 212.574219 211.449219 212.574219 208.945312 C 212.574219 208.34375 213.507812 208.34375 213.507812 208.945312 C 213.507812 211.449219 213.507812 213.953125 213.507812 216.460938 L 214.46875 216.460938 L 214.46875 192.554688 Z M 188.519531 216.417969 C 188.519531 216.433594 188.519531 216.445312 188.519531 216.460938 L 192.585938 216.460938 C 192.585938 216.445312 192.585938 216.433594 192.585938 216.417969 Z M 183.523438 216.417969 C 183.523438 216.433594 183.523438 216.445312 183.523438 216.460938 L 187.589844 216.460938 C 187.589844 216.445312 187.589844 216.433594 187.589844 216.417969 Z M 198.515625 216.460938 L 202.578125 216.460938 C 202.578125 216.445312 202.578125 216.433594 202.578125 216.417969 L 198.515625 216.417969 C 198.515625 216.433594 198.515625 216.445312 198.515625 216.460938 Z M 198.515625 216.460938 " fill-opacity="1" fill-rule="nonzero"/><path fill="#ffc86f" d="M 228.285156 175.226562 C 228.285156 177.054688 226.800781 178.539062 224.972656 178.539062 C 223.140625 178.539062 221.65625 177.054688 221.65625 175.226562 C 221.65625 173.394531 223.140625 171.910156 224.972656 171.910156 C 226.800781 171.910156 228.285156 173.394531 228.285156 175.226562 Z M 232.160156 168.320312 C 230.328125 168.320312 228.84375 169.804688 228.84375 171.632812 C 228.84375 173.464844 230.328125 174.945312 232.160156 174.945312 C 233.992188 174.945312 235.476562 173.464844 235.476562 171.632812 C 235.476562 169.804688 233.992188 168.320312 232.160156 168.320312 Z M 144.109375 171.910156 C 142.28125 171.910156 140.796875 173.394531 140.796875 175.226562 C 140.796875 177.054688 142.28125 178.539062 144.109375 178.539062 C 145.941406 178.539062 147.425781 177.054688 147.425781 175.226562 C 147.425781 173.394531 145.941406 171.910156 144.109375 171.910156 Z M 151.300781 168.320312 C 149.46875 168.320312 147.984375 169.804688 147.984375 171.632812 C 147.984375 173.464844 149.46875 174.945312 151.300781 174.945312 C 153.128906 174.945312 154.613281 173.464844 154.613281 171.632812 C 154.613281 169.804688 153.128906 168.320312 151.300781 168.320312 Z M 151.300781 168.320312 " fill-opacity="1" fill-rule="nonzero"/><path fill="#70cdc6" d="M 133.550781 208.945312 C 133.550781 210.917969 133.550781 212.894531 133.550781 214.867188 C 133.050781 215.5625 132.722656 216.417969 132.652344 217.308594 C 132.640625 217.304688 132.628906 217.296875 132.617188 217.292969 C 132.617188 214.511719 132.617188 211.726562 132.617188 208.945312 C 132.617188 208.34375 133.550781 208.34375 133.550781 208.945312 Z M 137.613281 208.945312 C 137.613281 210.414062 137.613281 211.886719 137.613281 213.355469 C 137.941406 213.445312 138.253906 213.578125 138.546875 213.753906 C 138.546875 212.152344 138.546875 210.546875 138.546875 208.945312 C 138.546875 208.34375 137.613281 208.34375 137.613281 208.945312 Z M 142.613281 208.945312 C 142.613281 210.097656 142.613281 211.246094 142.613281 212.394531 C 142.921875 212.367188 143.234375 212.367188 143.546875 212.398438 C 143.546875 211.25 143.546875 210.097656 143.546875 208.945312 C 143.546875 208.34375 142.613281 208.34375 142.613281 208.945312 Z M 147.609375 208.945312 C 147.609375 211.226562 147.609375 213.503906 147.609375 215.78125 C 147.628906 215.847656 147.652344 215.914062 147.667969 215.980469 C 147.957031 215.890625 148.25 215.835938 148.542969 215.800781 C 148.542969 213.515625 148.542969 211.230469 148.542969 208.945312 C 148.542969 208.34375 147.609375 208.34375 147.609375 208.945312 Z M 152.605469 208.945312 C 152.605469 211.652344 152.605469 214.359375 152.605469 217.066406 C 152.859375 217.28125 153.09375 217.523438 153.304688 217.792969 C 153.441406 217.722656 153.539062 217.59375 153.539062 217.394531 C 153.539062 214.578125 153.539062 211.761719 153.539062 208.945312 C 153.539062 208.34375 152.605469 208.34375 152.605469 208.945312 Z M 157.605469 208.945312 C 157.605469 210.921875 157.605469 212.898438 157.605469 214.875 C 157.910156 214.792969 158.222656 214.742188 158.539062 214.726562 C 158.539062 212.796875 158.539062 210.871094 158.539062 208.945312 C 158.539062 208.34375 157.605469 208.34375 157.605469 208.945312 Z M 162.601562 208.945312 C 162.601562 211.375 162.601562 213.804688 162.601562 216.234375 C 162.957031 216.558594 163.273438 216.933594 163.535156 217.347656 C 163.535156 217.050781 163.535156 216.753906 163.535156 216.460938 C 163.535156 213.953125 163.535156 211.449219 163.535156 208.945312 C 163.535156 208.34375 162.601562 208.34375 162.601562 208.945312 Z M 167.597656 208.945312 C 167.597656 211.4375 167.597656 213.925781 167.597656 216.417969 C 167.597656 216.433594 167.597656 216.445312 167.597656 216.460938 C 167.597656 216.773438 167.597656 217.082031 167.597656 217.394531 C 167.597656 217.996094 168.53125 217.996094 168.53125 217.394531 C 168.53125 217.082031 168.53125 216.773438 168.53125 216.460938 C 168.53125 216.445312 168.53125 216.433594 168.53125 216.417969 C 168.53125 213.925781 168.53125 211.4375 168.53125 208.945312 C 168.53125 208.34375 167.597656 208.34375 167.597656 208.945312 Z M 172.597656 208.945312 C 172.597656 211.4375 172.597656 213.925781 172.597656 216.417969 C 172.597656 216.433594 172.597656 216.445312 172.597656 216.460938 C 172.597656 216.773438 172.597656 217.082031 172.597656 217.394531 C 172.597656 217.996094 173.53125 217.996094 173.53125 217.394531 C 173.53125 217.082031 173.53125 216.773438 173.53125 216.460938 C 173.53125 216.445312 173.53125 216.433594 173.53125 216.417969 C 173.53125 213.925781 173.53125 211.4375 173.53125 208.945312 C 173.53125 208.34375 172.597656 208.34375 172.597656 208.945312 Z M 177.59375 208.945312 C 177.59375 211.449219 177.59375 213.953125 177.59375 216.460938 C 177.59375 216.773438 177.59375 217.082031 177.59375 217.394531 C 177.59375 217.996094 178.527344 217.996094 178.527344 217.394531 C 178.527344 217.082031 178.527344 216.773438 178.527344 216.460938 C 178.527344 213.953125 178.527344 211.449219 178.527344 208.945312 C 178.527344 208.34375 177.59375 208.34375 177.59375 208.945312 Z M 182.589844 208.945312 C 182.589844 211.4375 182.589844 213.925781 182.589844 216.417969 C 182.589844 216.433594 182.589844 216.445312 182.589844 216.460938 C 182.589844 216.773438 182.589844 217.082031 182.589844 217.394531 C 182.589844 217.996094 183.523438 217.996094 183.523438 217.394531 C 183.523438 217.082031 183.523438 216.773438 183.523438 216.460938 C 183.523438 216.445312 183.523438 216.433594 183.523438 216.417969 C 183.523438 213.925781 183.523438 211.4375 183.523438 208.945312 C 183.523438 208.34375 182.589844 208.34375 182.589844 208.945312 Z M 187.589844 208.945312 C 187.589844 211.4375 187.589844 213.925781 187.589844 216.417969 C 187.589844 216.433594 187.589844 216.445312 187.589844 216.460938 C 187.589844 216.773438 187.589844 217.082031 187.589844 217.394531 C 187.589844 217.996094 188.519531 217.996094 188.519531 217.394531 C 188.519531 217.082031 188.519531 216.773438 188.519531 216.460938 C 188.519531 216.445312 188.519531 216.433594 188.519531 216.417969 C 188.519531 213.925781 188.519531 211.4375 188.519531 208.945312 C 188.519531 208.34375 187.589844 208.34375 187.589844 208.945312 Z M 193.140625 208.503906 C 192.882812 208.457031 192.585938 208.605469 192.585938 208.945312 C 192.585938 211.4375 192.585938 213.925781 192.585938 216.417969 C 192.585938 216.433594 192.585938 216.445312 192.585938 216.460938 C 192.585938 216.773438 192.585938 217.082031 192.585938 217.394531 C 192.585938 217.996094 193.519531 217.996094 193.519531 217.394531 C 193.519531 217.082031 193.519531 216.773438 193.519531 216.460938 C 193.519531 213.953125 193.519531 211.449219 193.519531 208.945312 C 193.519531 208.683594 193.34375 208.539062 193.140625 208.503906 Z M 197.765625 208.582031 C 197.660156 208.65625 197.582031 208.773438 197.582031 208.945312 C 197.582031 211.449219 197.582031 213.953125 197.582031 216.460938 C 197.582031 216.773438 197.582031 217.082031 197.582031 217.394531 C 197.582031 217.996094 198.515625 217.996094 198.515625 217.394531 C 198.515625 217.082031 198.515625 216.773438 198.515625 216.460938 C 198.515625 216.445312 198.515625 216.433594 198.515625 216.417969 C 198.515625 213.925781 198.515625 211.4375 198.515625 208.945312 C 198.515625 208.515625 198.039062 208.394531 197.765625 208.582031 Z M 202.578125 208.945312 C 202.578125 211.4375 202.578125 213.925781 202.578125 216.417969 C 202.578125 216.433594 202.578125 216.445312 202.578125 216.460938 C 202.578125 216.773438 202.578125 217.082031 202.578125 217.394531 C 202.578125 217.996094 203.511719 217.996094 203.511719 217.394531 C 203.511719 217.082031 203.511719 216.773438 203.511719 216.460938 C 203.511719 216.445312 203.511719 216.433594 203.511719 216.417969 C 203.511719 213.925781 203.511719 211.4375 203.511719 208.945312 C 203.511719 208.34375 202.578125 208.34375 202.578125 208.945312 Z M 207.578125 208.945312 C 207.578125 211.4375 207.578125 213.925781 207.578125 216.417969 C 207.578125 216.433594 207.578125 216.445312 207.578125 216.460938 C 207.578125 216.773438 207.578125 217.082031 207.578125 217.394531 C 207.578125 217.996094 208.511719 217.996094 208.511719 217.394531 C 208.511719 217.082031 208.511719 216.773438 208.511719 216.460938 C 208.511719 213.953125 208.511719 211.449219 208.511719 208.945312 C 208.511719 208.878906 208.496094 208.820312 208.476562 208.769531 C 208.316406 208.355469 207.578125 208.410156 207.578125 208.945312 Z M 212.574219 208.945312 C 212.574219 211.449219 212.574219 213.953125 212.574219 216.460938 C 212.574219 216.773438 212.574219 217.082031 212.574219 217.394531 C 212.574219 217.996094 213.507812 217.996094 213.507812 217.394531 C 213.507812 217.082031 213.507812 216.773438 213.507812 216.460938 C 213.507812 213.953125 213.507812 211.449219 213.507812 208.945312 C 213.507812 208.34375 212.574219 208.34375 212.574219 208.945312 Z M 217.570312 208.945312 C 217.570312 211.761719 217.570312 214.578125 217.570312 217.394531 C 217.570312 217.996094 218.503906 217.996094 218.503906 217.394531 C 218.503906 214.578125 218.503906 211.761719 218.503906 208.945312 C 218.503906 208.34375 217.570312 208.34375 217.570312 208.945312 Z M 222.570312 208.945312 C 222.570312 211.761719 222.570312 214.578125 222.570312 217.394531 C 222.570312 217.996094 223.503906 217.996094 223.503906 217.394531 C 223.503906 214.578125 223.503906 211.761719 223.503906 208.945312 C 223.503906 208.34375 222.570312 208.34375 222.570312 208.945312 Z M 227.566406 208.945312 C 227.566406 211.761719 227.566406 214.578125 227.566406 217.394531 C 227.566406 217.996094 228.5 217.996094 228.5 217.394531 C 228.5 214.578125 228.5 211.761719 228.5 208.945312 C 228.5 208.34375 227.566406 208.34375 227.566406 208.945312 Z M 232.5625 208.945312 C 232.5625 211.761719 232.5625 214.578125 232.5625 217.394531 C 232.5625 217.996094 233.496094 217.996094 233.496094 217.394531 C 233.496094 214.578125 233.496094 211.761719 233.496094 208.945312 C 233.496094 208.34375 232.5625 208.34375 232.5625 208.945312 Z M 237.5625 208.945312 C 237.5625 211.761719 237.5625 214.578125 237.5625 217.394531 C 237.5625 217.996094 238.496094 217.996094 238.496094 217.394531 C 238.496094 214.578125 238.496094 211.761719 238.496094 208.945312 C 238.496094 208.34375 237.5625 208.34375 237.5625 208.945312 Z M 242.558594 208.945312 C 242.558594 211.761719 242.558594 214.578125 242.558594 217.394531 C 242.558594 217.996094 243.492188 217.996094 243.492188 217.394531 C 243.492188 214.578125 243.492188 211.761719 243.492188 208.945312 C 243.492188 208.34375 242.558594 208.34375 242.558594 208.945312 Z M 242.558594 208.945312 " fill-opacity="1" fill-rule="nonzero"/><g clip-path="url(#ce02698b7e)"><path fill="#da6220" d="M 186.558594 174.976562 C 186.558594 173.929688 186.558594 172.882812 186.558594 171.835938 C 186.019531 171.835938 185.480469 171.835938 184.945312 171.835938 C 184.34375 171.835938 184.34375 170.902344 184.945312 170.902344 C 185.480469 170.902344 186.019531 170.902344 186.558594 170.902344 C 186.558594 170.457031 186.558594 170.011719 186.558594 169.570312 C 186.558594 168.96875 187.488281 168.96875 187.488281 169.570312 C 187.488281 170.011719 187.488281 170.457031 187.488281 170.902344 C 188.027344 170.902344 188.566406 170.902344 189.101562 170.902344 C 189.707031 170.902344 189.703125 171.835938 189.101562 171.835938 C 188.566406 171.835938 188.027344 171.835938 187.488281 171.835938 C 187.488281 172.769531 187.488281 173.703125 187.488281 174.636719 L 219.546875 192.554688 L 155.371094 192.554688 Z M 230.269531 218.019531 L 225.972656 218.019531 L 225.972656 180.171875 C 226.746094 179.804688 227.492188 179.453125 228.191406 179.109375 L 228.191406 179.113281 C 228.859375 179.445312 229.558594 179.804688 230.269531 180.191406 Z M 228.5 208.945312 C 228.5 208.34375 227.566406 208.34375 227.566406 208.945312 C 227.566406 211.761719 227.566406 214.578125 227.566406 217.394531 C 227.566406 217.996094 228.5 217.996094 228.5 217.394531 C 228.5 214.578125 228.5 211.761719 228.5 208.945312 Z M 147.609375 215.78125 C 147.609375 213.503906 147.609375 211.226562 147.609375 208.945312 C 147.609375 208.34375 148.542969 208.34375 148.542969 208.945312 C 148.542969 211.230469 148.542969 213.515625 148.542969 215.800781 C 148.832031 215.765625 149.121094 215.757812 149.40625 215.773438 L 149.40625 180.191406 C 148.695312 179.804688 148 179.445312 147.328125 179.113281 L 147.328125 179.109375 C 146.628906 179.453125 145.886719 179.804688 145.113281 180.171875 L 145.113281 212.851562 C 146.253906 213.421875 147.207031 214.46875 147.609375 215.78125 Z M 188.75 216.417969 L 188.75 199.71875 L 193.140625 199.71875 L 193.140625 199.390625 C 193.140625 199.246094 193.132812 199.097656 193.121094 198.957031 C 193.117188 198.925781 193.113281 198.890625 193.113281 198.859375 C 193.097656 198.734375 193.078125 198.605469 193.054688 198.480469 C 193.042969 198.429688 193.03125 198.382812 193.023438 198.332031 C 193.003906 198.246094 192.980469 198.164062 192.957031 198.082031 C 192.929688 197.988281 192.898438 197.894531 192.867188 197.800781 C 192.851562 197.753906 192.835938 197.710938 192.820312 197.667969 C 192.765625 197.53125 192.707031 197.398438 192.644531 197.269531 C 192.632812 197.25 192.625 197.230469 192.617188 197.210938 L 188.75 197.210938 L 188.75 194.59375 C 188.632812 194.582031 188.515625 194.578125 188.394531 194.574219 C 188.371094 194.574219 188.34375 194.570312 188.320312 194.570312 L 185.417969 194.570312 C 185.273438 194.570312 185.132812 194.582031 184.988281 194.59375 L 184.988281 197.210938 L 181.121094 197.210938 C 181.121094 197.210938 181.121094 197.210938 181.121094 197.214844 C 181.046875 197.359375 180.980469 197.511719 180.921875 197.667969 C 180.902344 197.710938 180.886719 197.753906 180.871094 197.800781 C 180.839844 197.894531 180.808594 197.988281 180.78125 198.082031 C 180.757812 198.164062 180.738281 198.246094 180.71875 198.332031 C 180.707031 198.382812 180.695312 198.429688 180.683594 198.480469 C 180.660156 198.605469 180.640625 198.734375 180.628906 198.859375 C 180.625 198.890625 180.621094 198.925781 180.617188 198.957031 C 180.605469 199.097656 180.597656 199.246094 180.597656 199.390625 L 180.597656 199.71875 L 184.988281 199.71875 L 184.988281 216.417969 L 187.589844 216.417969 C 187.589844 213.925781 187.589844 211.4375 187.589844 208.945312 C 187.589844 208.34375 188.519531 208.34375 188.519531 208.945312 C 188.519531 211.4375 188.519531 213.925781 188.519531 216.417969 Z M 155.523438 222 C 147.097656 222 138.671875 222 130.242188 222 C 129.640625 222 129.640625 222.933594 130.242188 222.933594 C 145.257812 222.933594 160.273438 222.933594 175.292969 222.933594 C 190.230469 222.933594 205.171875 222.933594 220.109375 222.933594 C 221.851562 222.933594 223.59375 222.933594 225.335938 222.933594 C 225.648438 222.5625 226.007812 222.246094 226.402344 222 C 217.714844 222 209.03125 222 200.34375 222 C 185.40625 222 170.464844 222 155.523438 222 Z M 245.394531 222 C 240.339844 222 235.28125 222 230.226562 222 C 230.640625 222.246094 231.023438 222.558594 231.347656 222.933594 C 236.03125 222.933594 240.710938 222.933594 245.394531 222.933594 C 245.996094 222.933594 245.996094 222 245.394531 222 Z M 215.917969 226.710938 C 216.496094 226.808594 217.066406 227.054688 217.597656 227.339844 C 217.683594 227.121094 217.789062 226.910156 217.90625 226.710938 C 217.242188 226.710938 216.578125 226.710938 215.917969 226.710938 Z M 213.546875 227.644531 C 213.875 227.15625 214.40625 226.816406 214.953125 226.710938 C 209.359375 226.710938 203.769531 226.710938 198.175781 226.710938 C 185.824219 226.710938 173.46875 226.710938 161.113281 226.710938 C 154.144531 226.710938 147.175781 226.710938 140.207031 226.710938 C 139.605469 226.710938 139.605469 227.644531 140.207031 227.644531 C 152.625 227.644531 165.042969 227.644531 177.460938 227.644531 C 189.488281 227.644531 201.515625 227.644531 213.546875 227.644531 Z M 224.710938 232.960938 C 215.089844 232.960938 205.46875 232.960938 195.84375 232.960938 C 186.273438 232.960938 176.699219 232.960938 167.125 232.960938 C 161.726562 232.960938 156.324219 232.960938 150.925781 232.960938 C 150.324219 232.960938 150.324219 233.894531 150.925781 233.894531 C 160.546875 233.894531 170.167969 233.894531 179.792969 233.894531 C 189.363281 233.894531 198.9375 233.894531 208.511719 233.894531 C 213.910156 233.894531 219.3125 233.894531 224.710938 233.894531 C 225.3125 233.894531 225.3125 232.960938 224.710938 232.960938 Z M 224.710938 232.960938 " fill-opacity="1" fill-rule="nonzero"/></g><g clip-path="url(#46baa9888d)"><path fill="#2a7c69" d="M 175.972656 202.058594 L 175.972656 216.417969 L 173.53125 216.417969 C 173.53125 213.925781 173.53125 211.4375 173.53125 208.945312 C 173.53125 208.34375 172.597656 208.34375 172.597656 208.945312 C 172.597656 211.4375 172.597656 213.925781 172.597656 216.417969 L 168.53125 216.417969 C 168.53125 213.925781 168.53125 211.4375 168.53125 208.945312 C 168.53125 208.34375 167.597656 208.34375 167.597656 208.945312 C 167.597656 211.4375 167.597656 213.925781 167.597656 216.417969 L 165.261719 216.417969 L 165.261719 202.058594 C 165.261719 199.6875 167.183594 197.765625 169.554688 197.765625 L 171.679688 197.765625 C 174.050781 197.765625 175.972656 199.6875 175.972656 202.058594 Z M 204.183594 197.765625 L 202.058594 197.765625 C 199.6875 197.765625 197.765625 199.6875 197.765625 202.058594 L 197.765625 208.582031 C 198.039062 208.394531 198.515625 208.515625 198.515625 208.945312 C 198.515625 211.4375 198.515625 213.925781 198.515625 216.417969 L 202.578125 216.417969 C 202.578125 213.925781 202.578125 211.4375 202.578125 208.945312 C 202.578125 208.34375 203.511719 208.34375 203.511719 208.945312 C 203.511719 211.4375 203.511719 213.925781 203.511719 216.417969 L 207.578125 216.417969 C 207.578125 213.925781 207.578125 211.4375 207.578125 208.945312 C 207.578125 208.410156 208.316406 208.355469 208.476562 208.769531 L 208.476562 202.058594 C 208.476562 199.6875 206.554688 197.765625 204.183594 197.765625 Z M 238.933594 177.183594 C 240.8125 180.039062 241.566406 183.800781 240.949219 187.285156 C 237.945312 184.757812 233.910156 182.160156 230.269531 180.191406 C 229.558594 179.804688 228.859375 179.445312 228.191406 179.113281 L 228.191406 179.109375 C 227.492188 179.453125 226.746094 179.804688 225.972656 180.171875 C 222.199219 181.945312 217.742188 184.011719 214.816406 186.476562 C 214.199219 182.992188 214.949219 179.230469 216.832031 176.375 C 217.6875 175.074219 218.773438 173.976562 220 173.128906 C 217.464844 171.339844 214.8125 169.769531 212.0625 168.4375 C 214.445312 166.101562 217.71875 164.960938 220.855469 165.371094 C 222.257812 165.554688 223.617188 166.046875 224.863281 166.792969 C 224.945312 163.667969 224.835938 160.535156 224.527344 157.425781 C 227.511719 158.59375 230.015625 161.226562 231.25 164.496094 C 231.539062 165.253906 231.75 166.042969 231.898438 166.84375 C 233.167969 166.070312 234.558594 165.558594 235.988281 165.371094 C 239.128906 164.960938 242.402344 166.101562 244.78125 168.4375 C 241.632812 169.964844 238.605469 171.800781 235.742188 173.921875 C 236.976562 174.773438 238.070312 175.878906 238.933594 177.183594 Z M 228.285156 175.226562 C 228.285156 173.394531 226.800781 171.910156 224.972656 171.910156 C 223.140625 171.910156 221.65625 173.394531 221.65625 175.226562 C 221.65625 177.054688 223.140625 178.539062 224.972656 178.539062 C 226.800781 178.539062 228.285156 177.054688 228.285156 175.226562 Z M 235.476562 171.632812 C 235.476562 169.804688 233.992188 168.320312 232.160156 168.320312 C 230.328125 168.320312 228.84375 169.804688 228.84375 171.632812 C 228.84375 173.464844 230.328125 174.945312 232.160156 174.945312 C 233.992188 174.945312 235.476562 173.464844 235.476562 171.632812 Z M 139.140625 173.128906 C 136.605469 171.339844 133.949219 169.769531 131.203125 168.4375 C 133.582031 166.101562 136.859375 164.960938 139.996094 165.371094 C 141.394531 165.554688 142.757812 166.046875 144 166.792969 C 144.085938 163.667969 143.976562 160.535156 143.664062 157.425781 C 146.648438 158.59375 149.152344 161.226562 150.390625 164.496094 C 150.675781 165.253906 150.890625 166.042969 151.039062 166.84375 C 152.304688 166.070312 153.699219 165.558594 155.128906 165.371094 C 158.269531 164.960938 161.542969 166.101562 163.921875 168.4375 C 160.773438 169.964844 157.746094 171.800781 154.882812 173.921875 C 156.117188 174.773438 157.210938 175.878906 158.074219 177.183594 C 159.953125 180.039062 160.703125 183.800781 160.089844 187.285156 C 157.085938 184.757812 153.050781 182.160156 149.40625 180.191406 C 148.695312 179.804688 148 179.445312 147.328125 179.113281 L 147.328125 179.109375 C 146.628906 179.453125 145.886719 179.804688 145.113281 180.171875 C 141.339844 181.945312 136.882812 184.011719 133.953125 186.476562 C 133.339844 182.992188 134.089844 179.230469 135.96875 176.375 C 136.828125 175.074219 137.914062 173.976562 139.140625 173.128906 Z M 147.984375 171.632812 C 147.984375 173.464844 149.46875 174.945312 151.300781 174.945312 C 153.128906 174.945312 154.613281 173.464844 154.613281 171.632812 C 154.613281 169.804688 153.128906 168.320312 151.300781 168.320312 C 149.46875 168.320312 147.984375 169.804688 147.984375 171.632812 Z M 140.796875 175.226562 C 140.796875 177.054688 142.28125 178.539062 144.109375 178.539062 C 145.941406 178.539062 147.425781 177.054688 147.425781 175.226562 C 147.425781 173.394531 145.941406 171.910156 144.109375 171.910156 C 142.28125 171.910156 140.796875 173.394531 140.796875 175.226562 Z M 188.75 194.59375 L 188.75 197.210938 L 192.613281 197.210938 C 191.878906 195.769531 190.441406 194.742188 188.75 194.59375 Z M 180.597656 216.417969 L 182.589844 216.417969 C 182.589844 213.925781 182.589844 211.4375 182.589844 208.945312 C 182.589844 208.34375 183.523438 208.34375 183.523438 208.945312 C 183.523438 211.4375 183.523438 213.925781 183.523438 216.417969 L 184.988281 216.417969 L 184.988281 199.71875 L 180.597656 199.71875 Z M 188.75 216.417969 L 192.585938 216.417969 C 192.585938 213.925781 192.585938 211.4375 192.585938 208.945312 C 192.585938 208.605469 192.882812 208.457031 193.140625 208.503906 L 193.140625 199.71875 L 188.75 199.71875 Z M 181.121094 197.210938 L 184.988281 197.210938 L 184.988281 194.59375 C 185.132812 194.582031 185.273438 194.570312 185.417969 194.570312 C 183.542969 194.570312 181.917969 195.644531 181.121094 197.210938 Z M 188.320312 194.570312 C 188.34375 194.570312 188.371094 194.574219 188.394531 194.574219 C 188.371094 194.574219 188.34375 194.570312 188.320312 194.570312 Z M 237.980469 226.441406 C 237.65625 226.085938 237.234375 225.832031 236.792969 225.648438 C 235.65625 225.175781 234.347656 225.144531 233.191406 225.566406 C 232.972656 225.648438 232.753906 225.753906 232.550781 225.878906 C 232.535156 225.652344 232.507812 225.429688 232.46875 225.210938 C 232.304688 224.34375 231.898438 223.558594 231.347656 222.933594 C 231.023438 222.558594 230.640625 222.246094 230.226562 222 C 229.511719 221.574219 228.699219 221.367188 227.890625 221.460938 C 227.367188 221.523438 226.863281 221.714844 226.402344 222 C 226.007812 222.246094 225.648438 222.5625 225.335938 222.933594 C 224.585938 223.8125 224.113281 224.988281 224.113281 226.207031 C 223.253906 225.09375 221.871094 224.527344 220.578125 224.753906 C 219.496094 224.941406 218.503906 225.679688 217.90625 226.710938 C 217.789062 226.910156 217.683594 227.121094 217.597656 227.339844 C 217.066406 227.054688 216.496094 226.808594 215.917969 226.710938 C 215.621094 226.664062 215.320312 226.648438 215.023438 226.695312 C 215 226.699219 214.976562 226.707031 214.953125 226.710938 C 214.40625 226.816406 213.875 227.15625 213.546875 227.644531 C 213.355469 227.921875 213.230469 228.242188 213.207031 228.597656 L 213.175781 229.546875 L 232.523438 229.457031 L 232.523438 229.425781 L 238.917969 229.425781 C 238.824219 228.367188 238.695312 227.226562 237.980469 226.441406 Z M 162.601562 216.234375 C 162.273438 215.929688 161.914062 215.667969 161.539062 215.453125 C 161.058594 215.179688 160.535156 214.976562 160.003906 214.851562 C 159.519531 214.742188 159.027344 214.695312 158.539062 214.726562 C 158.222656 214.742188 157.910156 214.792969 157.605469 214.875 C 157.316406 214.953125 157.035156 215.058594 156.761719 215.195312 C 155.257812 215.953125 154.132812 217.449219 154.15625 219.300781 C 153.949219 218.738281 153.65625 218.234375 153.304688 217.792969 C 153.09375 217.523438 152.859375 217.28125 152.605469 217.066406 C 151.703125 216.285156 150.566406 215.832031 149.40625 215.773438 C 149.121094 215.757812 148.832031 215.765625 148.542969 215.800781 C 148.25 215.835938 147.957031 215.890625 147.667969 215.980469 C 147.652344 215.914062 147.628906 215.847656 147.609375 215.78125 C 147.207031 214.46875 146.253906 213.421875 145.113281 212.851562 C 144.707031 212.652344 144.28125 212.511719 143.851562 212.441406 C 143.75 212.421875 143.648438 212.410156 143.546875 212.398438 C 143.234375 212.367188 142.921875 212.367188 142.613281 212.394531 C 141.296875 212.511719 140.015625 213.128906 138.964844 214.042969 C 138.832031 213.9375 138.691406 213.839844 138.546875 213.753906 C 138.253906 213.578125 137.941406 213.445312 137.613281 213.355469 C 136.738281 213.113281 135.789062 213.195312 134.96875 213.617188 C 134.417969 213.902344 133.933594 214.339844 133.550781 214.867188 C 133.050781 215.5625 132.722656 216.417969 132.652344 217.308594 C 132.640625 217.304688 132.628906 217.296875 132.617188 217.292969 C 131.953125 217.019531 130.917969 216.707031 130.128906 217.027344 C 128.234375 217.792969 128.394531 220.496094 128.394531 220.496094 L 164.207031 220.496094 L 164.207031 218.964844 C 164.078125 218.378906 163.84375 217.835938 163.535156 217.347656 C 163.273438 216.933594 162.957031 216.558594 162.601562 216.234375 Z M 162.601562 216.234375 " fill-opacity="1" fill-rule="nonzero"/></g><g fill="#ff914d" fill-opacity="1"><g transform="translate(68.2971, 258.560652)"><g><path d="M 18.828125 -6.46875 C 20.328125 -6.46875 21.851562 -6.804688 23.40625 -7.484375 C 24.96875 -8.171875 26.609375 -9.328125 28.328125 -10.953125 L 32.21875 -6.609375 C 30 -4.234375 27.609375 -2.4375 25.046875 -1.21875 C 22.492188 0 19.96875 0.609375 17.46875 0.609375 C 15.21875 0.609375 13.175781 0.148438 11.34375 -0.765625 C 9.519531 -1.691406 8.015625 -2.9375 6.828125 -4.5 C 5.648438 -6.0625 4.8125 -7.878906 4.3125 -9.953125 C 3.8125 -12.023438 3.75 -14.234375 4.125 -16.578125 C 4.5 -18.921875 5.269531 -21.117188 6.4375 -23.171875 C 7.601562 -25.234375 9.046875 -27.046875 10.765625 -28.609375 C 12.484375 -30.171875 14.410156 -31.40625 16.546875 -32.3125 C 18.691406 -33.21875 20.890625 -33.671875 23.140625 -33.671875 C 25.222656 -33.671875 27.144531 -33.28125 28.90625 -32.5 C 30.675781 -31.71875 32.328125 -30.421875 33.859375 -28.609375 L 28.9375 -23.59375 C 27.84375 -24.8125 26.738281 -25.628906 25.625 -26.046875 C 24.519531 -26.472656 23.332031 -26.6875 22.0625 -26.6875 C 20.78125 -26.6875 19.53125 -26.421875 18.3125 -25.890625 C 17.09375 -25.359375 15.988281 -24.640625 15 -23.734375 C 14.019531 -22.835938 13.1875 -21.769531 12.5 -20.53125 C 11.8125 -19.300781 11.359375 -17.984375 11.140625 -16.578125 C 10.921875 -15.171875 10.953125 -13.859375 11.234375 -12.640625 C 11.515625 -11.421875 12.003906 -10.347656 12.703125 -9.421875 C 13.410156 -8.503906 14.285156 -7.78125 15.328125 -7.25 C 16.378906 -6.726562 17.546875 -6.46875 18.828125 -6.46875 Z M 18.828125 -6.46875 "/></g></g></g><g fill="#ff914d" fill-opacity="1"><g transform="translate(100.647168, 258.560652)"><g><path d="M 7.5 -33.203125 L 28.234375 -33.203125 L 27.203125 -26.734375 L 13.578125 -26.734375 L 12.640625 -20.75 L 24.625 -20.75 L 23.59375 -14.28125 L 11.609375 -14.28125 L 10.34375 -6.421875 L 23.96875 -6.421875 L 23 0 L 2.25 0 Z M 7.5 -33.203125 "/></g></g></g><g fill="#ff914d" fill-opacity="1"><g transform="translate(125.693892, 258.560652)"><g><path d="M 25.84375 -18.078125 C 27 -17.171875 27.847656 -16.003906 28.390625 -14.578125 C 28.941406 -13.160156 29.09375 -11.59375 28.84375 -9.875 C 28.625 -8.5 28.15625 -7.210938 27.4375 -6.015625 C 26.71875 -4.816406 25.835938 -3.769531 24.796875 -2.875 C 23.753906 -1.988281 22.59375 -1.285156 21.3125 -0.765625 C 20.03125 -0.253906 18.703125 0 17.328125 0 L 2.25 0 L 7.5 -33.203125 L 22.109375 -33.203125 C 23.347656 -33.203125 24.484375 -32.957031 25.515625 -32.46875 C 26.546875 -31.988281 27.394531 -31.34375 28.0625 -30.53125 C 28.738281 -29.71875 29.222656 -28.765625 29.515625 -27.671875 C 29.816406 -26.578125 29.875 -25.40625 29.6875 -24.15625 C 29.46875 -22.820312 29.019531 -21.644531 28.34375 -20.625 C 27.675781 -19.613281 26.84375 -18.765625 25.84375 -18.078125 Z M 12.640625 -20.75 L 20.140625 -20.75 C 20.984375 -20.75 21.738281 -21.046875 22.40625 -21.640625 C 23.070312 -22.234375 23.484375 -22.945312 23.640625 -23.78125 C 23.796875 -24.625 23.617188 -25.328125 23.109375 -25.890625 C 22.597656 -26.453125 21.921875 -26.734375 21.078125 -26.734375 L 13.578125 -26.734375 Z M 18.3125 -6.421875 C 18.78125 -6.421875 19.238281 -6.53125 19.6875 -6.75 C 20.144531 -6.96875 20.550781 -7.253906 20.90625 -7.609375 C 21.269531 -7.960938 21.578125 -8.378906 21.828125 -8.859375 C 22.078125 -9.347656 22.25 -9.859375 22.34375 -10.390625 C 22.5 -11.484375 22.3125 -12.40625 21.78125 -13.15625 C 21.25 -13.90625 20.515625 -14.28125 19.578125 -14.28125 L 11.609375 -14.28125 L 10.34375 -6.421875 Z M 18.3125 -6.421875 "/></g></g></g><g fill="#00bf63" fill-opacity="1"><g transform="translate(154.488505, 258.560652)"><g><path d="M 1.078125 -33.203125 L 25.09375 -33.203125 L 25.09375 -26.734375 L 16.625 -26.734375 L 16.625 0 L 9.546875 0 L 9.546875 -26.734375 L 1.078125 -26.734375 Z M 1.078125 -33.203125 "/></g></g></g><g fill="#00bf63" fill-opacity="1"><g transform="translate(180.471549, 258.560652)"><g><path d="M 17.890625 -33.671875 C 20.140625 -33.671875 22.257812 -33.21875 24.25 -32.3125 C 26.25 -31.40625 27.988281 -30.171875 29.46875 -28.609375 C 30.957031 -27.046875 32.128906 -25.234375 32.984375 -23.171875 C 33.847656 -21.117188 34.28125 -18.921875 34.28125 -16.578125 C 34.28125 -14.265625 33.847656 -12.0625 32.984375 -9.96875 C 32.128906 -7.882812 30.957031 -6.0625 29.46875 -4.5 C 27.988281 -2.9375 26.25 -1.691406 24.25 -0.765625 C 22.257812 0.148438 20.140625 0.609375 17.890625 0.609375 C 15.640625 0.609375 13.515625 0.148438 11.515625 -0.765625 C 9.515625 -1.691406 7.78125 -2.9375 6.3125 -4.5 C 4.851562 -6.0625 3.691406 -7.882812 2.828125 -9.96875 C 1.972656 -12.0625 1.546875 -14.265625 1.546875 -16.578125 C 1.546875 -18.921875 1.972656 -21.117188 2.828125 -23.171875 C 3.691406 -25.234375 4.851562 -27.046875 6.3125 -28.609375 C 7.78125 -30.171875 9.515625 -31.40625 11.515625 -32.3125 C 13.515625 -33.21875 15.640625 -33.671875 17.890625 -33.671875 Z M 17.890625 -6.46875 C 19.171875 -6.46875 20.375 -6.726562 21.5 -7.25 C 22.625 -7.78125 23.601562 -8.503906 24.4375 -9.421875 C 25.28125 -10.347656 25.941406 -11.421875 26.421875 -12.640625 C 26.910156 -13.859375 27.15625 -15.171875 27.15625 -16.578125 C 27.15625 -17.984375 26.910156 -19.300781 26.421875 -20.53125 C 25.941406 -21.769531 25.28125 -22.847656 24.4375 -23.765625 C 23.601562 -24.679688 22.625 -25.40625 21.5 -25.9375 C 20.375 -26.46875 19.171875 -26.734375 17.890625 -26.734375 C 16.609375 -26.734375 15.40625 -26.46875 14.28125 -25.9375 C 13.15625 -25.40625 12.171875 -24.679688 11.328125 -23.765625 C 10.484375 -22.847656 9.816406 -21.769531 9.328125 -20.53125 C 8.847656 -19.300781 8.609375 -17.984375 8.609375 -16.578125 C 8.609375 -15.171875 8.847656 -13.859375 9.328125 -12.640625 C 9.816406 -11.421875 10.484375 -10.347656 11.328125 -9.421875 C 12.171875 -8.503906 13.15625 -7.78125 14.28125 -7.25 C 15.40625 -6.726562 16.609375 -6.46875 17.890625 -6.46875 Z M 17.890625 -6.46875 "/></g></g></g><g fill="#00bf63" fill-opacity="1"><g transform="translate(216.098759, 258.560652)"><g><path d="M 20.984375 -33.203125 L 28.046875 -33.203125 L 28.046875 -11.984375 C 28.046875 -10.328125 27.703125 -8.734375 27.015625 -7.203125 C 26.328125 -5.679688 25.390625 -4.34375 24.203125 -3.1875 C 23.023438 -2.03125 21.644531 -1.109375 20.0625 -0.421875 C 18.488281 0.265625 16.796875 0.609375 14.984375 0.609375 C 13.203125 0.609375 11.515625 0.265625 9.921875 -0.421875 C 8.335938 -1.109375 6.957031 -2.03125 5.78125 -3.1875 C 4.613281 -4.34375 3.6875 -5.679688 3 -7.203125 C 2.3125 -8.734375 1.96875 -10.328125 1.96875 -11.984375 L 1.96875 -33.203125 L 9.03125 -33.203125 L 9.03125 -13.390625 C 9.03125 -12.453125 9.1875 -11.566406 9.5 -10.734375 C 9.8125 -9.910156 10.234375 -9.179688 10.765625 -8.546875 C 11.296875 -7.910156 11.925781 -7.40625 12.65625 -7.03125 C 13.394531 -6.65625 14.171875 -6.46875 14.984375 -6.46875 C 15.828125 -6.46875 16.609375 -6.65625 17.328125 -7.03125 C 18.046875 -7.40625 18.675781 -7.910156 19.21875 -8.546875 C 19.769531 -9.179688 20.203125 -9.910156 20.515625 -10.734375 C 20.828125 -11.566406 20.984375 -12.453125 20.984375 -13.390625 Z M 20.984375 -33.203125 "/></g></g></g><g fill="#00bf63" fill-opacity="1"><g transform="translate(245.873932, 258.560652)"><g><path d="M 26.078125 -23.328125 C 26.078125 -22.265625 25.925781 -21.253906 25.625 -20.296875 C 25.332031 -19.347656 24.921875 -18.472656 24.390625 -17.671875 C 23.859375 -16.878906 23.21875 -16.175781 22.46875 -15.5625 C 21.726562 -14.957031 20.921875 -14.46875 20.046875 -14.09375 L 31.046875 0 L 22.765625 0 L 12.5 -13.390625 L 9.3125 -13.390625 L 9.3125 0 L 2.203125 0 L 2.203125 -33.203125 L 16.53125 -33.203125 C 17.84375 -33.203125 19.082031 -32.941406 20.25 -32.421875 C 21.425781 -31.910156 22.441406 -31.207031 23.296875 -30.3125 C 24.148438 -29.425781 24.828125 -28.378906 25.328125 -27.171875 C 25.828125 -25.972656 26.078125 -24.691406 26.078125 -23.328125 Z M 15.640625 -19.859375 C 16.546875 -19.859375 17.328125 -20.191406 17.984375 -20.859375 C 18.640625 -21.535156 18.96875 -22.359375 18.96875 -23.328125 C 18.96875 -24.253906 18.640625 -25.050781 17.984375 -25.71875 C 17.328125 -26.394531 16.546875 -26.734375 15.640625 -26.734375 L 9.3125 -26.734375 L 9.3125 -19.859375 Z M 15.640625 -19.859375 "/></g></g></g><g fill="#00bf63" fill-opacity="1"><g transform="translate(277.849465, 258.560652)"><g><path d="M 23.328125 -17.09375 C 24.628906 -16.3125 25.625 -15.3125 26.3125 -14.09375 C 27 -12.875 27.34375 -11.46875 27.34375 -9.875 C 27.34375 -8.382812 26.984375 -6.988281 26.265625 -5.6875 C 25.546875 -4.394531 24.535156 -3.25 23.234375 -2.25 C 22.046875 -1.34375 20.691406 -0.644531 19.171875 -0.15625 C 17.660156 0.320312 16.0625 0.578125 14.375 0.609375 C 12.6875 0.609375 11.078125 0.375 9.546875 -0.09375 C 8.023438 -0.5625 6.671875 -1.265625 5.484375 -2.203125 C 3.703125 -3.546875 2.484375 -5.171875 1.828125 -7.078125 L 8.375 -10.109375 C 8.375 -9.796875 8.484375 -9.40625 8.703125 -8.9375 C 8.921875 -8.46875 9.265625 -8.015625 9.734375 -7.578125 C 10.203125 -7.148438 10.8125 -6.78125 11.5625 -6.46875 C 12.3125 -6.15625 13.234375 -6 14.328125 -6 C 15.203125 -6 15.972656 -6.109375 16.640625 -6.328125 C 17.316406 -6.546875 17.878906 -6.816406 18.328125 -7.140625 C 18.785156 -7.472656 19.128906 -7.847656 19.359375 -8.265625 C 19.597656 -8.679688 19.71875 -9.109375 19.71875 -9.546875 C 19.71875 -10.046875 19.550781 -10.515625 19.21875 -10.953125 C 18.894531 -11.390625 18.390625 -11.734375 17.703125 -11.984375 C 16.453125 -12.421875 15.128906 -12.785156 13.734375 -13.078125 C 12.347656 -13.378906 11 -13.753906 9.6875 -14.203125 C 8.382812 -14.660156 7.171875 -15.265625 6.046875 -16.015625 C 4.921875 -16.765625 4.03125 -17.8125 3.375 -19.15625 C 2.78125 -20.34375 2.484375 -21.609375 2.484375 -22.953125 C 2.484375 -24.441406 2.832031 -25.890625 3.53125 -27.296875 C 4.238281 -28.703125 5.203125 -29.890625 6.421875 -30.859375 C 7.566406 -31.765625 8.859375 -32.457031 10.296875 -32.9375 C 11.734375 -33.425781 13.25 -33.671875 14.84375 -33.671875 C 16.4375 -33.671875 17.957031 -33.4375 19.40625 -32.96875 C 20.863281 -32.5 22.171875 -31.8125 23.328125 -30.90625 C 24.441406 -30.0625 25.328125 -29.078125 25.984375 -27.953125 L 20.65625 -24.296875 C 20 -25.203125 19.175781 -25.925781 18.1875 -26.46875 C 17.207031 -27.019531 16.109375 -27.296875 14.890625 -27.296875 C 13.203125 -27.296875 11.894531 -26.921875 10.96875 -26.171875 C 10.050781 -25.421875 9.59375 -24.441406 9.59375 -23.234375 C 9.59375 -22.671875 9.847656 -22.171875 10.359375 -21.734375 C 10.878906 -21.296875 11.550781 -20.90625 12.375 -20.5625 C 13.207031 -20.21875 14.140625 -19.910156 15.171875 -19.640625 C 16.203125 -19.378906 17.222656 -19.113281 18.234375 -18.84375 C 19.253906 -18.582031 20.21875 -18.3125 21.125 -18.03125 C 22.03125 -17.75 22.765625 -17.4375 23.328125 -17.09375 Z M 23.328125 -17.09375 "/></g></g></g><g fill="#440e0e" fill-opacity="1"><g transform="translate(122.142158, 270.253341)"><g><path d="M 1.21875 0 L 1.21875 -10.234375 L 8.984375 -10.234375 L 8.984375 -9.09375 L 2.609375 -9.09375 L 2.609375 -5.8125 L 8.546875 -5.8125 L 8.546875 -4.703125 L 2.609375 -4.703125 L 2.609375 -1.140625 L 9.28125 -1.140625 L 9.28125 0 Z M 1.21875 0 "/></g></g></g><g fill="#440e0e" fill-opacity="1"><g transform="translate(134.292408, 270.253341)"><g><path d="M 5.8125 0 L 3.703125 -3.21875 L 1.578125 0 L 0.171875 0 L 2.96875 -4.03125 L 0.296875 -7.859375 L 1.75 -7.859375 L 3.703125 -4.796875 L 5.65625 -7.859375 L 7.109375 -7.859375 L 4.4375 -4.046875 L 7.28125 0 Z M 5.8125 0 "/></g></g></g><g fill="#440e0e" fill-opacity="1"><g transform="translate(143.959302, 270.253341)"><g><path d="M 7.640625 -3.96875 C 7.640625 -1.226562 6.675781 0.140625 4.75 0.140625 C 3.539062 0.140625 2.726562 -0.3125 2.3125 -1.21875 L 2.28125 -1.21875 C 2.300781 -1.175781 2.3125 -0.765625 2.3125 0.015625 L 2.3125 3.09375 L 1 3.09375 L 1 -6.25 C 1 -7.0625 0.984375 -7.597656 0.953125 -7.859375 L 2.21875 -7.859375 C 2.226562 -7.835938 2.238281 -7.765625 2.25 -7.640625 C 2.257812 -7.523438 2.269531 -7.34375 2.28125 -7.09375 C 2.289062 -6.851562 2.296875 -6.6875 2.296875 -6.59375 L 2.328125 -6.59375 C 2.554688 -7.082031 2.863281 -7.4375 3.25 -7.65625 C 3.632812 -7.882812 4.132812 -8 4.75 -8 C 5.71875 -8 6.441406 -7.671875 6.921875 -7.015625 C 7.398438 -6.367188 7.640625 -5.351562 7.640625 -3.96875 Z M 6.28125 -3.9375 C 6.28125 -5.03125 6.128906 -5.8125 5.828125 -6.28125 C 5.535156 -6.75 5.066406 -6.984375 4.421875 -6.984375 C 3.898438 -6.984375 3.492188 -6.875 3.203125 -6.65625 C 2.910156 -6.4375 2.6875 -6.097656 2.53125 -5.640625 C 2.382812 -5.179688 2.3125 -4.578125 2.3125 -3.828125 C 2.3125 -2.796875 2.472656 -2.035156 2.796875 -1.546875 C 3.128906 -1.066406 3.664062 -0.828125 4.40625 -0.828125 C 5.050781 -0.828125 5.523438 -1.0625 5.828125 -1.53125 C 6.128906 -2.007812 6.28125 -2.8125 6.28125 -3.9375 Z M 6.28125 -3.9375 "/></g></g></g><g fill="#440e0e" fill-opacity="1"><g transform="translate(154.46125, 270.253341)"><g><path d="M 1 0 L 1 -10.78125 L 2.3125 -10.78125 L 2.3125 0 Z M 1 0 "/></g></g></g><g fill="#440e0e" fill-opacity="1"><g transform="translate(159.996482, 270.253341)"><g><path d="M 7.640625 -3.9375 C 7.640625 -2.5625 7.335938 -1.535156 6.734375 -0.859375 C 6.128906 -0.191406 5.253906 0.140625 4.109375 0.140625 C 2.953125 0.140625 2.082031 -0.207031 1.5 -0.90625 C 0.914062 -1.601562 0.625 -2.613281 0.625 -3.9375 C 0.625 -6.644531 1.796875 -8 4.140625 -8 C 5.347656 -8 6.234375 -7.664062 6.796875 -7 C 7.359375 -6.34375 7.640625 -5.320312 7.640625 -3.9375 Z M 6.28125 -3.9375 C 6.28125 -5.019531 6.117188 -5.804688 5.796875 -6.296875 C 5.472656 -6.785156 4.929688 -7.03125 4.171875 -7.03125 C 3.398438 -7.03125 2.84375 -6.78125 2.5 -6.28125 C 2.164062 -5.78125 2 -5 2 -3.9375 C 2 -2.894531 2.164062 -2.113281 2.5 -1.59375 C 2.832031 -1.082031 3.363281 -0.828125 4.09375 -0.828125 C 4.875 -0.828125 5.429688 -1.078125 5.765625 -1.578125 C 6.109375 -2.078125 6.28125 -2.863281 6.28125 -3.9375 Z M 6.28125 -3.9375 "/></g></g></g><g fill="#440e0e" fill-opacity="1"><g transform="translate(170.498427, 270.253341)"><g><path d="M 1.03125 0 L 1.03125 -6.03125 C 1.03125 -6.582031 1.015625 -7.191406 0.984375 -7.859375 L 2.21875 -7.859375 C 2.257812 -6.960938 2.28125 -6.425781 2.28125 -6.25 L 2.3125 -6.25 C 2.519531 -6.925781 2.757812 -7.382812 3.03125 -7.625 C 3.300781 -7.875 3.679688 -8 4.171875 -8 C 4.347656 -8 4.523438 -7.976562 4.703125 -7.9375 L 4.703125 -6.734375 C 4.523438 -6.785156 4.296875 -6.8125 4.015625 -6.8125 C 3.472656 -6.8125 3.054688 -6.578125 2.765625 -6.109375 C 2.484375 -5.640625 2.34375 -4.96875 2.34375 -4.09375 L 2.34375 0 Z M 1.03125 0 "/></g></g></g><g fill="#440e0e" fill-opacity="1"><g transform="translate(177.681963, 270.253341)"><g><path d="M 1 -9.53125 L 1 -10.78125 L 2.296875 -10.78125 L 2.296875 -9.53125 Z M 1 0 L 1 -7.859375 L 2.296875 -7.859375 L 2.296875 0 Z M 1 0 "/></g></g></g><g fill="#440e0e" fill-opacity="1"><g transform="translate(183.217195, 270.253341)"><g><path d="M 5.984375 0 L 5.984375 -4.984375 C 5.984375 -5.503906 5.929688 -5.90625 5.828125 -6.1875 C 5.734375 -6.46875 5.570312 -6.671875 5.34375 -6.796875 C 5.125 -6.929688 4.800781 -7 4.375 -7 C 3.738281 -7 3.238281 -6.78125 2.875 -6.34375 C 2.519531 -5.914062 2.34375 -5.316406 2.34375 -4.546875 L 2.34375 0 L 1.03125 0 L 1.03125 -6.1875 C 1.03125 -7.09375 1.015625 -7.648438 0.984375 -7.859375 L 2.21875 -7.859375 C 2.226562 -7.835938 2.234375 -7.769531 2.234375 -7.65625 C 2.242188 -7.550781 2.25 -7.429688 2.25 -7.296875 C 2.257812 -7.160156 2.269531 -6.898438 2.28125 -6.515625 L 2.296875 -6.515625 C 2.597656 -7.054688 2.945312 -7.4375 3.34375 -7.65625 C 3.738281 -7.882812 4.226562 -8 4.8125 -8 C 5.675781 -8 6.304688 -7.785156 6.703125 -7.359375 C 7.109375 -6.929688 7.3125 -6.222656 7.3125 -5.234375 L 7.3125 0 Z M 5.984375 0 "/></g></g></g><g fill="#440e0e" fill-opacity="1"><g transform="translate(193.71914, 270.253341)"><g><path d="M 3.984375 3.09375 C 3.117188 3.09375 2.429688 2.921875 1.921875 2.578125 C 1.421875 2.242188 1.097656 1.765625 0.953125 1.140625 L 2.265625 0.953125 C 2.347656 1.316406 2.539062 1.597656 2.84375 1.796875 C 3.144531 1.992188 3.535156 2.09375 4.015625 2.09375 C 5.316406 2.09375 5.96875 1.328125 5.96875 -0.203125 L 5.96875 -1.453125 L 5.953125 -1.453125 C 5.703125 -0.953125 5.363281 -0.570312 4.9375 -0.3125 C 4.507812 -0.0625 4.003906 0.0625 3.421875 0.0625 C 2.460938 0.0625 1.753906 -0.253906 1.296875 -0.890625 C 0.847656 -1.535156 0.625 -2.546875 0.625 -3.921875 C 0.625 -5.304688 0.863281 -6.328125 1.34375 -6.984375 C 1.832031 -7.648438 2.578125 -7.984375 3.578125 -7.984375 C 4.128906 -7.984375 4.609375 -7.851562 5.015625 -7.59375 C 5.429688 -7.34375 5.75 -6.984375 5.96875 -6.515625 L 5.984375 -6.515625 C 5.984375 -6.660156 5.992188 -6.910156 6.015625 -7.265625 C 6.035156 -7.628906 6.054688 -7.828125 6.078125 -7.859375 L 7.3125 -7.859375 C 7.28125 -7.597656 7.265625 -7.054688 7.265625 -6.234375 L 7.265625 -0.21875 C 7.265625 1.988281 6.171875 3.09375 3.984375 3.09375 Z M 5.96875 -3.921875 C 5.96875 -4.566406 5.878906 -5.117188 5.703125 -5.578125 C 5.535156 -6.046875 5.289062 -6.398438 4.96875 -6.640625 C 4.65625 -6.890625 4.296875 -7.015625 3.890625 -7.015625 C 3.222656 -7.015625 2.734375 -6.769531 2.421875 -6.28125 C 2.117188 -5.800781 1.96875 -5.015625 1.96875 -3.921875 C 1.96875 -2.847656 2.109375 -2.078125 2.390625 -1.609375 C 2.679688 -1.140625 3.175781 -0.90625 3.875 -0.90625 C 4.28125 -0.90625 4.644531 -1.023438 4.96875 -1.265625 C 5.289062 -1.515625 5.535156 -1.863281 5.703125 -2.3125 C 5.878906 -2.769531 5.96875 -3.304688 5.96875 -3.921875 Z M 5.96875 -3.921875 "/></g></g></g><g fill="#440e0e" fill-opacity="1"><g transform="translate(204.221085, 270.253341)"><g/></g></g><g fill="#440e0e" fill-opacity="1"><g transform="translate(210.584102, 270.253341)"><g><path d="M 5.75 -9.25 C 4.613281 -9.25 3.734375 -8.882812 3.109375 -8.15625 C 2.484375 -7.425781 2.171875 -6.429688 2.171875 -5.171875 C 2.171875 -3.910156 2.492188 -2.898438 3.140625 -2.140625 C 3.796875 -1.378906 4.6875 -1 5.8125 -1 C 7.238281 -1 8.316406 -1.707031 9.046875 -3.125 L 10.171875 -2.5625 C 9.753906 -1.675781 9.160156 -1.003906 8.390625 -0.546875 C 7.628906 -0.0859375 6.75 0.140625 5.75 0.140625 C 4.71875 0.140625 3.820312 -0.0703125 3.0625 -0.5 C 2.3125 -0.925781 1.738281 -1.535156 1.34375 -2.328125 C 0.945312 -3.128906 0.75 -4.078125 0.75 -5.171875 C 0.75 -6.796875 1.191406 -8.070312 2.078125 -9 C 2.960938 -9.925781 4.179688 -10.390625 5.734375 -10.390625 C 6.828125 -10.390625 7.738281 -10.175781 8.46875 -9.75 C 9.195312 -9.320312 9.734375 -8.6875 10.078125 -7.84375 L 8.765625 -7.421875 C 8.523438 -8.015625 8.140625 -8.46875 7.609375 -8.78125 C 7.085938 -9.09375 6.46875 -9.25 5.75 -9.25 Z M 5.75 -9.25 "/></g></g></g><g fill="#440e0e" fill-opacity="1"><g transform="translate(223.554887, 270.253341)"><g><path d="M 2 -3.65625 C 2 -2.75 2.1875 -2.050781 2.5625 -1.5625 C 2.9375 -1.070312 3.484375 -0.828125 4.203125 -0.828125 C 4.765625 -0.828125 5.21875 -0.941406 5.5625 -1.171875 C 5.90625 -1.398438 6.132812 -1.691406 6.25 -2.046875 L 7.40625 -1.71875 C 6.9375 -0.476562 5.867188 0.140625 4.203125 0.140625 C 3.035156 0.140625 2.144531 -0.203125 1.53125 -0.890625 C 0.925781 -1.585938 0.625 -2.617188 0.625 -3.984375 C 0.625 -5.273438 0.925781 -6.265625 1.53125 -6.953125 C 2.144531 -7.648438 3.015625 -8 4.140625 -8 C 6.453125 -8 7.609375 -6.609375 7.609375 -3.828125 L 7.609375 -3.65625 Z M 6.265625 -4.65625 C 6.191406 -5.476562 5.976562 -6.078125 5.625 -6.453125 C 5.28125 -6.835938 4.78125 -7.03125 4.125 -7.03125 C 3.488281 -7.03125 2.984375 -6.816406 2.609375 -6.390625 C 2.242188 -5.972656 2.046875 -5.394531 2.015625 -4.65625 Z M 6.265625 -4.65625 "/></g></g></g><g fill="#440e0e" fill-opacity="1"><g transform="translate(234.056831, 270.253341)"><g><path d="M 7.640625 -3.96875 C 7.640625 -1.226562 6.675781 0.140625 4.75 0.140625 C 4.15625 0.140625 3.660156 0.0351562 3.265625 -0.171875 C 2.878906 -0.390625 2.5625 -0.738281 2.3125 -1.21875 L 2.296875 -1.21875 C 2.296875 -1.070312 2.285156 -0.84375 2.265625 -0.53125 C 2.242188 -0.226562 2.226562 -0.0507812 2.21875 0 L 0.953125 0 C 0.984375 -0.257812 1 -0.800781 1 -1.625 L 1 -10.78125 L 2.3125 -10.78125 L 2.3125 -7.703125 C 2.3125 -7.390625 2.300781 -7.019531 2.28125 -6.59375 L 2.3125 -6.59375 C 2.550781 -7.09375 2.867188 -7.453125 3.265625 -7.671875 C 3.671875 -7.890625 4.164062 -8 4.75 -8 C 5.75 -8 6.476562 -7.664062 6.9375 -7 C 7.40625 -6.332031 7.640625 -5.320312 7.640625 -3.96875 Z M 6.28125 -3.921875 C 6.28125 -5.023438 6.132812 -5.8125 5.84375 -6.28125 C 5.550781 -6.757812 5.078125 -7 4.421875 -7 C 3.679688 -7 3.144531 -6.742188 2.8125 -6.234375 C 2.476562 -5.734375 2.3125 -4.9375 2.3125 -3.84375 C 2.3125 -2.8125 2.472656 -2.050781 2.796875 -1.5625 C 3.128906 -1.070312 3.664062 -0.828125 4.40625 -0.828125 C 5.0625 -0.828125 5.535156 -1.066406 5.828125 -1.546875 C 6.128906 -2.035156 6.28125 -2.828125 6.28125 -3.921875 Z M 6.28125 -3.921875 "/></g></g></g><g fill="#440e0e" fill-opacity="1"><g transform="translate(244.558776, 270.253341)"><g><path d="M 2.28125 -7.859375 L 2.28125 -2.875 C 2.28125 -2.351562 2.328125 -1.945312 2.421875 -1.65625 C 2.523438 -1.375 2.6875 -1.171875 2.90625 -1.046875 C 3.132812 -0.921875 3.46875 -0.859375 3.90625 -0.859375 C 4.53125 -0.859375 5.023438 -1.070312 5.390625 -1.5 C 5.753906 -1.9375 5.9375 -2.539062 5.9375 -3.3125 L 5.9375 -7.859375 L 7.234375 -7.859375 L 7.234375 -1.671875 C 7.234375 -0.765625 7.25 -0.207031 7.28125 0 L 6.046875 0 C 6.046875 -0.0195312 6.039062 -0.0820312 6.03125 -0.1875 C 6.03125 -0.300781 6.023438 -0.425781 6.015625 -0.5625 C 6.003906 -0.695312 5.992188 -0.957031 5.984375 -1.34375 L 5.96875 -1.34375 C 5.664062 -0.800781 5.316406 -0.414062 4.921875 -0.1875 C 4.535156 0.03125 4.046875 0.140625 3.453125 0.140625 C 2.597656 0.140625 1.96875 -0.0703125 1.5625 -0.5 C 1.164062 -0.925781 0.96875 -1.632812 0.96875 -2.625 L 0.96875 -7.859375 Z M 2.28125 -7.859375 "/></g></g></g></svg>