<svg xmlns="http://www.w3.org/2000/svg" xmlns:xlink="http://www.w3.org/1999/xlink" width="500" zoomAndPan="magnify" viewBox="0 0 375 374.999991" height="500" preserveAspectRatio="xMidYMid meet" version="1.0"><defs><g/><clipPath id="1cd7a168b7"><path d="M 113.589844 138.75 L 262.5 138.75 L 262.5 222 L 113.589844 222 Z M 113.589844 138.75 " clip-rule="nonzero"/></clipPath><clipPath id="f37c4128e9"><path d="M 114 153 L 262.5 153 L 262.5 222 L 114 222 Z M 114 153 " clip-rule="nonzero"/></clipPath><clipPath id="acdda235b3"><path d="M 113.589844 138.75 L 261 138.75 L 261 222 L 113.589844 222 Z M 113.589844 138.75 " clip-rule="nonzero"/></clipPath></defs><g clip-path="url(#1cd7a168b7)"><path fill="#2a7c69" d="M 246.582031 204.4375 C 246.582031 208.027344 246.582031 211.617188 246.582031 215.207031 C 246.582031 215.972656 245.394531 215.972656 245.394531 215.207031 C 245.394531 211.617188 245.394531 208.027344 245.394531 204.4375 C 245.394531 203.671875 246.582031 203.671875 246.582031 204.4375 Z M 258.125 204.4375 C 258.125 208.027344 258.125 211.617188 258.125 215.207031 C 258.125 215.972656 259.3125 215.972656 259.3125 215.207031 C 259.3125 211.617188 259.3125 208.027344 259.3125 204.4375 C 259.3125 203.671875 258.125 203.671875 258.125 204.4375 Z M 251.757812 204.4375 C 251.757812 208.027344 251.757812 211.617188 251.757812 215.207031 C 251.757812 215.972656 252.949219 215.972656 252.949219 215.207031 C 252.949219 211.617188 252.949219 208.027344 252.949219 204.4375 C 252.949219 203.671875 251.757812 203.671875 251.757812 204.4375 Z M 232.660156 204.4375 C 232.660156 208.027344 232.660156 211.617188 232.660156 215.207031 C 232.660156 215.972656 233.851562 215.972656 233.851562 215.207031 C 233.851562 211.617188 233.851562 208.027344 233.851562 204.4375 C 233.851562 203.671875 232.660156 203.671875 232.660156 204.4375 Z M 226.296875 204.4375 C 226.296875 208.027344 226.296875 211.617188 226.296875 215.207031 C 226.296875 215.972656 227.484375 215.972656 227.484375 215.207031 C 227.484375 211.617188 227.484375 208.027344 227.484375 204.4375 C 227.484375 203.671875 226.296875 203.671875 226.296875 204.4375 Z M 235.390625 235.042969 C 223.132812 235.042969 210.875 235.042969 198.617188 235.042969 C 186.421875 235.042969 174.226562 235.042969 162.03125 235.042969 C 155.152344 235.042969 148.273438 235.042969 141.394531 235.042969 C 140.628906 235.042969 140.628906 236.234375 141.394531 236.234375 C 153.652344 236.234375 165.910156 236.234375 178.167969 236.234375 C 190.363281 236.234375 202.558594 236.234375 214.753906 236.234375 C 221.632812 236.234375 228.511719 236.234375 235.390625 236.234375 C 236.15625 236.234375 236.15625 235.042969 235.390625 235.042969 Z M 261.738281 221.074219 C 255.296875 221.074219 248.859375 221.074219 242.417969 221.074219 C 241.503906 220.535156 240.472656 220.265625 239.441406 220.390625 C 238.773438 220.46875 238.128906 220.710938 237.546875 221.074219 C 226.480469 221.074219 215.414062 221.074219 204.351562 221.074219 C 185.316406 221.074219 166.285156 221.074219 147.253906 221.074219 C 136.519531 221.074219 125.785156 221.074219 115.046875 221.074219 C 114.28125 221.074219 114.28125 222.265625 115.046875 222.265625 C 134.175781 222.265625 153.304688 222.265625 172.433594 222.265625 C 191.46875 222.265625 210.5 222.265625 229.53125 222.265625 C 231.746094 222.265625 233.964844 222.265625 236.183594 222.265625 C 235.234375 223.382812 234.625 224.878906 234.628906 226.4375 C 233.535156 225.019531 231.773438 224.292969 230.125 224.582031 C 228.746094 224.824219 227.484375 225.765625 226.71875 227.078125 C 225.875 227.078125 225.03125 227.078125 224.1875 227.078125 C 223.8125 227.015625 223.429688 227 223.046875 227.0625 C 223.019531 227.066406 222.988281 227.074219 222.957031 227.078125 C 215.835938 227.078125 208.710938 227.078125 201.589844 227.078125 C 185.851562 227.078125 170.113281 227.078125 154.375 227.078125 C 145.496094 227.078125 136.617188 227.078125 127.738281 227.078125 C 126.972656 227.078125 126.972656 228.269531 127.738281 228.269531 C 143.558594 228.269531 159.378906 228.269531 175.195312 228.269531 C 190.519531 228.269531 205.84375 228.269531 221.164062 228.269531 C 220.925781 228.621094 220.765625 229.03125 220.734375 229.480469 L 220.695312 230.695312 L 245.34375 230.578125 L 245.34375 230.539062 L 253.488281 230.539062 C 253.367188 229.191406 253.203125 227.734375 252.292969 226.734375 C 251.878906 226.28125 251.34375 225.957031 250.78125 225.722656 C 249.335938 225.121094 247.664062 225.082031 246.195312 225.621094 C 245.914062 225.722656 245.636719 225.855469 245.378906 226.015625 C 245.355469 225.730469 245.324219 225.445312 245.269531 225.164062 C 245.0625 224.0625 244.546875 223.0625 243.847656 222.265625 C 249.808594 222.265625 255.773438 222.265625 261.738281 222.265625 C 262.503906 222.265625 262.503906 221.074219 261.738281 221.074219 Z M 158.3125 217.203125 C 158.152344 216.457031 157.855469 215.765625 157.457031 215.144531 C 157.457031 214.765625 157.457031 214.390625 157.457031 214.011719 L 162.636719 214.011719 C 162.636719 214.410156 162.636719 214.808594 162.636719 215.207031 C 162.636719 215.972656 163.824219 215.972656 163.824219 215.207031 C 163.824219 214.808594 163.824219 214.410156 163.824219 214.011719 L 169 214.011719 C 169 214.410156 169 214.808594 169 215.207031 C 169 215.972656 170.191406 215.972656 170.191406 215.207031 C 170.191406 214.808594 170.191406 214.410156 170.191406 214.011719 L 175.367188 214.011719 C 175.367188 214.410156 175.367188 214.808594 175.367188 215.207031 C 175.367188 215.972656 176.554688 215.972656 176.554688 215.207031 C 176.554688 214.808594 176.554688 214.410156 176.554688 214.011719 L 181.734375 214.011719 C 181.734375 214.410156 181.734375 214.808594 181.734375 215.207031 C 181.734375 215.972656 182.921875 215.972656 182.921875 215.207031 C 182.921875 214.808594 182.921875 214.410156 182.921875 214.011719 L 188.097656 214.011719 C 188.097656 214.410156 188.097656 214.808594 188.097656 215.207031 C 188.097656 215.972656 189.289062 215.972656 189.289062 215.207031 C 189.289062 214.808594 189.289062 214.410156 189.289062 214.011719 L 194.464844 214.011719 C 194.464844 214.410156 194.464844 214.808594 194.464844 215.207031 C 194.464844 215.972656 195.65625 215.972656 195.65625 215.207031 C 195.65625 214.808594 195.65625 214.410156 195.65625 214.011719 L 200.832031 214.011719 C 200.832031 214.410156 200.832031 214.808594 200.832031 215.207031 C 200.832031 215.972656 202.019531 215.972656 202.019531 215.207031 C 202.019531 214.808594 202.019531 214.410156 202.019531 214.011719 L 207.199219 214.011719 C 207.199219 214.410156 207.199219 214.808594 207.199219 215.207031 C 207.199219 215.972656 208.386719 215.972656 208.386719 215.207031 C 208.386719 214.808594 208.386719 214.410156 208.386719 214.011719 L 213.5625 214.011719 C 213.5625 214.410156 213.5625 214.808594 213.5625 215.207031 C 213.5625 215.972656 214.753906 215.972656 214.753906 215.207031 C 214.753906 214.808594 214.753906 214.410156 214.753906 214.011719 L 219.929688 214.011719 C 219.929688 214.410156 219.929688 214.808594 219.929688 215.207031 C 219.929688 215.972656 221.117188 215.972656 221.117188 215.207031 C 221.117188 214.808594 221.117188 214.410156 221.117188 214.011719 L 222.34375 214.011719 L 222.34375 183.542969 L 228.8125 183.542969 L 187.976562 160.707031 C 187.976562 159.519531 187.976562 158.328125 187.976562 157.136719 C 188.660156 157.136719 189.34375 157.136719 190.03125 157.136719 C 190.796875 157.136719 190.796875 155.949219 190.03125 155.949219 C 189.34375 155.949219 188.660156 155.949219 187.976562 155.949219 C 187.976562 155.382812 187.976562 154.816406 187.976562 154.25 C 187.976562 153.484375 186.785156 153.484375 186.785156 154.25 C 186.785156 154.816406 186.785156 155.382812 186.785156 155.949219 C 186.101562 155.949219 185.414062 155.949219 184.730469 155.949219 C 183.964844 155.949219 183.964844 157.136719 184.730469 157.136719 C 185.414062 157.136719 186.101562 157.136719 186.785156 157.136719 C 186.785156 158.472656 186.785156 159.808594 186.785156 161.144531 L 147.058594 183.542969 L 152.960938 183.542969 L 152.960938 211.964844 C 152.34375 211.824219 151.714844 211.765625 151.09375 211.800781 C 151.09375 209.347656 151.09375 206.890625 151.09375 204.4375 C 151.09375 203.671875 149.902344 203.671875 149.902344 204.4375 C 149.902344 206.957031 149.902344 209.476562 149.902344 211.996094 C 149.535156 212.09375 149.175781 212.230469 148.828125 212.402344 C 146.910156 213.367188 145.480469 215.273438 145.507812 217.636719 C 145.246094 216.914062 144.875 216.273438 144.425781 215.710938 C 144.597656 215.625 144.726562 215.457031 144.726562 215.207031 C 144.726562 211.617188 144.726562 208.027344 144.726562 204.4375 C 144.726562 203.671875 143.539062 203.671875 143.539062 204.4375 C 143.539062 207.886719 143.539062 211.335938 143.539062 214.785156 C 142.386719 213.792969 140.941406 213.214844 139.460938 213.136719 L 139.460938 167.789062 C 144.101562 170.296875 149.242188 173.609375 153.066406 176.832031 C 153.851562 172.390625 152.894531 167.59375 150.5 163.957031 C 149.402344 162.289062 148.007812 160.882812 146.433594 159.796875 C 150.082031 157.097656 153.941406 154.753906 157.953125 152.808594 C 154.921875 149.832031 150.75 148.375 146.75 148.898438 C 144.925781 149.140625 143.152344 149.792969 141.539062 150.78125 C 141.351562 149.753906 141.078125 148.75 140.714844 147.785156 C 139.140625 143.621094 135.949219 140.265625 132.148438 138.777344 C 132.542969 142.738281 132.683594 146.726562 132.574219 150.710938 C 130.992188 149.761719 129.257812 149.132812 127.472656 148.898438 C 123.476562 148.375 119.304688 149.832031 116.273438 152.808594 C 119.773438 154.503906 123.152344 156.511719 126.382812 158.785156 C 124.820312 159.867188 123.4375 161.269531 122.34375 162.925781 C 119.949219 166.566406 118.992188 171.359375 119.777344 175.800781 C 123.507812 172.660156 129.183594 170.027344 133.988281 167.761719 L 133.988281 209.417969 C 133.476562 209.164062 132.933594 208.984375 132.382812 208.890625 C 132.253906 208.867188 132.125 208.851562 131.996094 208.839844 C 131.996094 207.371094 131.996094 205.902344 131.996094 204.4375 C 131.996094 203.671875 130.804688 203.671875 130.804688 204.4375 C 130.804688 205.902344 130.804688 207.367188 130.804688 208.835938 C 129.132812 208.980469 127.496094 209.769531 126.160156 210.933594 C 125.988281 210.796875 125.8125 210.675781 125.628906 210.566406 C 125.628906 208.523438 125.628906 206.480469 125.628906 204.4375 C 125.628906 203.671875 124.441406 203.671875 124.441406 204.4375 C 124.441406 206.308594 124.441406 208.183594 124.441406 210.058594 C 123.324219 209.75 122.113281 209.851562 121.066406 210.390625 C 120.367188 210.753906 119.75 211.308594 119.261719 211.984375 C 119.261719 209.46875 119.261719 206.953125 119.261719 204.4375 C 119.261719 203.671875 118.074219 203.671875 118.074219 204.4375 C 118.074219 207.984375 118.074219 211.527344 118.074219 215.074219 C 117.230469 214.726562 115.910156 214.328125 114.90625 214.734375 C 112.492188 215.710938 112.695312 219.160156 112.695312 219.160156 L 158.3125 219.160156 Z M 225.351562 162.925781 C 222.957031 166.566406 222 171.359375 222.785156 175.800781 C 226.515625 172.660156 232.191406 170.027344 236.996094 167.761719 L 236.996094 216.003906 L 242.46875 216.003906 L 242.46875 167.789062 C 247.109375 170.296875 252.25 173.609375 256.074219 176.832031 C 256.859375 172.390625 255.902344 167.59375 253.507812 163.957031 C 252.410156 162.289062 251.015625 160.882812 249.441406 159.796875 C 253.089844 157.097656 256.949219 154.753906 260.960938 152.808594 C 257.925781 149.832031 253.753906 148.375 249.757812 148.898438 C 247.933594 149.140625 246.160156 149.792969 244.546875 150.78125 C 244.359375 149.753906 244.085938 148.75 243.722656 147.785156 C 242.144531 143.621094 238.957031 140.265625 235.152344 138.777344 C 235.546875 142.738281 235.691406 146.726562 235.582031 150.710938 C 233.996094 149.761719 232.261719 149.132812 230.480469 148.898438 C 226.480469 148.375 222.308594 149.832031 219.277344 152.808594 C 222.777344 154.503906 226.160156 156.511719 229.386719 158.785156 C 227.828125 159.867188 226.441406 161.269531 225.351562 162.925781 Z M 225.351562 162.925781 " fill-opacity="1" fill-rule="nonzero"/></g><path fill="#f0eccb" d="M 163.824219 213.960938 L 169 213.960938 C 169 213.976562 169 213.996094 169 214.011719 L 163.824219 214.011719 C 163.824219 213.996094 163.824219 213.976562 163.824219 213.960938 Z M 208.386719 214.011719 L 213.5625 214.011719 C 213.5625 213.996094 213.5625 213.976562 213.5625 213.960938 L 208.386719 213.960938 C 208.386719 213.976562 208.386719 213.996094 208.386719 214.011719 Z M 187.855469 183.542969 L 152.960938 183.542969 L 152.960938 211.964844 C 153.640625 212.121094 154.300781 212.378906 154.917969 212.730469 C 155.394531 213.003906 155.851562 213.339844 156.269531 213.722656 C 156.269531 210.628906 156.269531 207.53125 156.269531 204.4375 C 156.269531 203.671875 157.457031 203.671875 157.457031 204.4375 C 157.457031 207.628906 157.457031 210.820312 157.457031 214.011719 L 162.636719 214.011719 C 162.636719 213.996094 162.636719 213.976562 162.636719 213.960938 L 159.660156 213.960938 L 159.660156 195.65625 C 159.660156 192.636719 162.105469 190.1875 165.128906 190.1875 L 167.832031 190.1875 C 170.855469 190.1875 173.304688 192.636719 173.304688 195.65625 L 173.304688 213.960938 L 170.191406 213.960938 C 170.191406 213.976562 170.191406 213.996094 170.191406 214.011719 L 175.367188 214.011719 C 175.367188 210.820312 175.367188 207.628906 175.367188 204.4375 C 175.367188 203.671875 176.554688 203.671875 176.554688 204.4375 C 176.554688 207.628906 176.554688 210.820312 176.554688 214.011719 L 181.734375 214.011719 C 181.734375 213.996094 181.734375 213.976562 181.734375 213.960938 L 179.191406 213.960938 L 179.191406 192.261719 C 179.191406 192.070312 179.203125 191.886719 179.222656 191.703125 C 179.226562 191.664062 179.226562 191.625 179.234375 191.582031 C 179.25 191.421875 179.277344 191.257812 179.304688 191.097656 C 179.320312 191.035156 179.332031 190.972656 179.347656 190.910156 C 179.371094 190.800781 179.398438 190.695312 179.429688 190.589844 C 179.464844 190.46875 179.5 190.351562 179.542969 190.230469 C 179.5625 190.175781 179.582031 190.117188 179.605469 190.0625 C 179.679688 189.863281 179.765625 189.671875 179.863281 189.484375 C 179.863281 189.484375 179.863281 189.480469 179.863281 189.480469 C 180.878906 187.484375 182.945312 186.117188 185.335938 186.117188 L 189.03125 186.117188 C 189.0625 186.117188 189.09375 186.121094 189.128906 186.121094 C 189.277344 186.125 189.429688 186.128906 189.578125 186.144531 C 191.734375 186.335938 193.566406 187.640625 194.5 189.480469 L 194.507812 189.480469 C 194.519531 189.507812 194.527344 189.53125 194.539062 189.554688 C 194.621094 189.722656 194.695312 189.890625 194.761719 190.0625 C 194.785156 190.117188 194.804688 190.175781 194.824219 190.230469 C 194.867188 190.351562 194.90625 190.46875 194.941406 190.589844 C 194.96875 190.695312 194.996094 190.800781 195.019531 190.910156 C 195.035156 190.972656 195.050781 191.035156 195.0625 191.097656 C 195.09375 191.257812 195.117188 191.417969 195.136719 191.582031 C 195.140625 191.625 195.144531 191.664062 195.148438 191.703125 C 195.164062 191.886719 195.175781 192.074219 195.175781 192.261719 L 195.175781 203.871094 C 195.429688 203.914062 195.65625 204.105469 195.65625 204.4375 C 195.65625 207.628906 195.65625 210.820312 195.65625 214.011719 L 200.832031 214.011719 C 200.832031 210.820312 200.832031 207.628906 200.832031 204.4375 C 200.832031 204.21875 200.929688 204.066406 201.066406 203.972656 L 201.066406 195.65625 C 201.066406 192.636719 203.515625 190.1875 206.535156 190.1875 L 209.242188 190.1875 C 212.261719 190.1875 214.710938 192.636719 214.710938 195.65625 L 214.710938 204.214844 C 214.734375 204.277344 214.753906 204.351562 214.753906 204.4375 C 214.753906 207.628906 214.753906 210.820312 214.753906 214.011719 L 219.929688 214.011719 C 219.929688 210.820312 219.929688 207.628906 219.929688 204.4375 C 219.929688 203.671875 221.117188 203.671875 221.117188 204.4375 C 221.117188 207.628906 221.117188 210.820312 221.117188 214.011719 L 222.34375 214.011719 L 222.34375 183.542969 Z M 189.289062 213.960938 C 189.289062 213.976562 189.289062 213.996094 189.289062 214.011719 L 194.464844 214.011719 C 194.464844 213.996094 194.464844 213.976562 194.464844 213.960938 Z M 182.921875 213.960938 C 182.921875 213.976562 182.921875 213.996094 182.921875 214.011719 L 188.097656 214.011719 C 188.097656 213.996094 188.097656 213.976562 188.097656 213.960938 Z M 202.019531 214.011719 L 207.199219 214.011719 C 207.199219 213.996094 207.199219 213.976562 207.199219 213.960938 L 202.019531 213.960938 C 202.019531 213.976562 202.019531 213.996094 202.019531 214.011719 Z M 202.019531 214.011719 " fill-opacity="1" fill-rule="nonzero"/><path fill="#ffc86f" d="M 239.945312 161.460938 C 239.945312 163.792969 238.054688 165.683594 235.722656 165.683594 C 233.386719 165.683594 231.496094 163.792969 231.496094 161.460938 C 231.496094 159.128906 233.386719 157.238281 235.722656 157.238281 C 238.054688 157.238281 239.945312 159.128906 239.945312 161.460938 Z M 244.878906 152.660156 C 242.546875 152.660156 240.65625 154.550781 240.65625 156.882812 C 240.65625 159.214844 242.546875 161.105469 244.878906 161.105469 C 247.210938 161.105469 249.101562 159.214844 249.101562 156.882812 C 249.101562 154.550781 247.210938 152.660156 244.878906 152.660156 Z M 132.714844 157.238281 C 130.382812 157.238281 128.492188 159.128906 128.492188 161.460938 C 128.492188 163.792969 130.382812 165.683594 132.714844 165.683594 C 135.046875 165.683594 136.9375 163.792969 136.9375 161.460938 C 136.9375 159.128906 135.046875 157.238281 132.714844 157.238281 Z M 141.871094 152.660156 C 139.539062 152.660156 137.648438 154.550781 137.648438 156.882812 C 137.648438 159.214844 139.539062 161.105469 141.871094 161.105469 C 144.203125 161.105469 146.09375 159.214844 146.09375 156.882812 C 146.09375 154.550781 144.203125 152.660156 141.871094 152.660156 Z M 141.871094 152.660156 " fill-opacity="1" fill-rule="nonzero"/><path fill="#70cdc6" d="M 119.261719 204.4375 C 119.261719 206.953125 119.261719 209.46875 119.261719 211.984375 C 118.625 212.867188 118.207031 213.957031 118.117188 215.09375 C 118.105469 215.085938 118.089844 215.082031 118.074219 215.074219 C 118.074219 211.527344 118.074219 207.984375 118.074219 204.4375 C 118.074219 203.671875 119.261719 203.671875 119.261719 204.4375 Z M 124.441406 204.4375 C 124.441406 206.308594 124.441406 208.183594 124.441406 210.058594 C 124.851562 210.171875 125.253906 210.339844 125.628906 210.566406 C 125.628906 208.523438 125.628906 206.480469 125.628906 204.4375 C 125.628906 203.671875 124.441406 203.671875 124.441406 204.4375 Z M 130.804688 204.4375 C 130.804688 205.902344 130.804688 207.367188 130.804688 208.835938 C 131.203125 208.800781 131.597656 208.800781 131.996094 208.839844 C 131.996094 207.371094 131.996094 205.902344 131.996094 204.4375 C 131.996094 203.671875 130.804688 203.671875 130.804688 204.4375 Z M 137.171875 204.4375 C 137.171875 207.339844 137.171875 210.246094 137.171875 213.148438 C 137.199219 213.234375 137.226562 213.316406 137.246094 213.40625 C 137.613281 213.289062 137.984375 213.214844 138.359375 213.171875 C 138.359375 210.257812 138.359375 207.347656 138.359375 204.4375 C 138.359375 203.671875 137.171875 203.671875 137.171875 204.4375 Z M 143.539062 204.4375 C 143.539062 207.886719 143.539062 211.335938 143.539062 214.785156 C 143.859375 215.0625 144.15625 215.371094 144.425781 215.710938 C 144.597656 215.625 144.726562 215.457031 144.726562 215.207031 C 144.726562 211.617188 144.726562 208.027344 144.726562 204.4375 C 144.726562 203.671875 143.539062 203.671875 143.539062 204.4375 Z M 149.902344 204.4375 C 149.902344 206.957031 149.902344 209.476562 149.902344 211.996094 C 150.292969 211.890625 150.691406 211.828125 151.09375 211.800781 C 151.09375 209.347656 151.09375 206.890625 151.09375 204.4375 C 151.09375 203.671875 149.902344 203.671875 149.902344 204.4375 Z M 156.269531 204.4375 C 156.269531 207.53125 156.269531 210.628906 156.269531 213.722656 C 156.71875 214.140625 157.125 214.617188 157.457031 215.144531 C 157.457031 214.765625 157.457031 214.390625 157.457031 214.011719 C 157.457031 210.820312 157.457031 207.628906 157.457031 204.4375 C 157.457031 203.671875 156.269531 203.671875 156.269531 204.4375 Z M 162.636719 204.4375 C 162.636719 207.609375 162.636719 210.785156 162.636719 213.960938 C 162.636719 213.976562 162.636719 213.996094 162.636719 214.011719 C 162.636719 214.410156 162.636719 214.808594 162.636719 215.207031 C 162.636719 215.972656 163.824219 215.972656 163.824219 215.207031 C 163.824219 214.808594 163.824219 214.410156 163.824219 214.011719 C 163.824219 213.996094 163.824219 213.976562 163.824219 213.960938 C 163.824219 210.785156 163.824219 207.609375 163.824219 204.4375 C 163.824219 203.671875 162.636719 203.671875 162.636719 204.4375 Z M 169 204.4375 C 169 207.609375 169 210.785156 169 213.960938 C 169 213.976562 169 213.996094 169 214.011719 C 169 214.410156 169 214.808594 169 215.207031 C 169 215.972656 170.191406 215.972656 170.191406 215.207031 C 170.191406 214.808594 170.191406 214.410156 170.191406 214.011719 C 170.191406 213.996094 170.191406 213.976562 170.191406 213.960938 C 170.191406 210.785156 170.191406 207.609375 170.191406 204.4375 C 170.191406 203.671875 169 203.671875 169 204.4375 Z M 175.367188 204.4375 C 175.367188 207.628906 175.367188 210.820312 175.367188 214.011719 C 175.367188 214.410156 175.367188 214.808594 175.367188 215.207031 C 175.367188 215.972656 176.554688 215.972656 176.554688 215.207031 C 176.554688 214.808594 176.554688 214.410156 176.554688 214.011719 C 176.554688 210.820312 176.554688 207.628906 176.554688 204.4375 C 176.554688 203.671875 175.367188 203.671875 175.367188 204.4375 Z M 181.734375 204.4375 C 181.734375 207.609375 181.734375 210.785156 181.734375 213.960938 C 181.734375 213.976562 181.734375 213.996094 181.734375 214.011719 C 181.734375 214.410156 181.734375 214.808594 181.734375 215.207031 C 181.734375 215.972656 182.921875 215.972656 182.921875 215.207031 C 182.921875 214.808594 182.921875 214.410156 182.921875 214.011719 C 182.921875 213.996094 182.921875 213.976562 182.921875 213.960938 C 182.921875 210.785156 182.921875 207.609375 182.921875 204.4375 C 182.921875 203.671875 181.734375 203.671875 181.734375 204.4375 Z M 188.097656 204.4375 C 188.097656 207.609375 188.097656 210.785156 188.097656 213.960938 C 188.097656 213.976562 188.097656 213.996094 188.097656 214.011719 C 188.097656 214.410156 188.097656 214.808594 188.097656 215.207031 C 188.097656 215.972656 189.289062 215.972656 189.289062 215.207031 C 189.289062 214.808594 189.289062 214.410156 189.289062 214.011719 C 189.289062 213.996094 189.289062 213.976562 189.289062 213.960938 C 189.289062 210.785156 189.289062 207.609375 189.289062 204.4375 C 189.289062 203.671875 188.097656 203.671875 188.097656 204.4375 Z M 195.175781 203.871094 C 194.84375 203.816406 194.464844 204.003906 194.464844 204.4375 C 194.464844 207.609375 194.464844 210.785156 194.464844 213.960938 C 194.464844 213.976562 194.464844 213.996094 194.464844 214.011719 C 194.464844 214.410156 194.464844 214.808594 194.464844 215.207031 C 194.464844 215.972656 195.65625 215.972656 195.65625 215.207031 C 195.65625 214.808594 195.65625 214.410156 195.65625 214.011719 C 195.65625 210.820312 195.65625 207.628906 195.65625 204.4375 C 195.65625 204.105469 195.429688 203.914062 195.175781 203.871094 Z M 201.066406 203.972656 C 200.929688 204.066406 200.832031 204.21875 200.832031 204.4375 C 200.832031 207.628906 200.832031 210.820312 200.832031 214.011719 C 200.832031 214.410156 200.832031 214.808594 200.832031 215.207031 C 200.832031 215.972656 202.019531 215.972656 202.019531 215.207031 C 202.019531 214.808594 202.019531 214.410156 202.019531 214.011719 C 202.019531 213.996094 202.019531 213.976562 202.019531 213.960938 C 202.019531 210.785156 202.019531 207.609375 202.019531 204.4375 C 202.019531 203.886719 201.410156 203.734375 201.066406 203.972656 Z M 207.199219 204.4375 C 207.199219 207.609375 207.199219 210.785156 207.199219 213.960938 C 207.199219 213.976562 207.199219 213.996094 207.199219 214.011719 C 207.199219 214.410156 207.199219 214.808594 207.199219 215.207031 C 207.199219 215.972656 208.386719 215.972656 208.386719 215.207031 C 208.386719 214.808594 208.386719 214.410156 208.386719 214.011719 C 208.386719 213.996094 208.386719 213.976562 208.386719 213.960938 C 208.386719 210.785156 208.386719 207.609375 208.386719 204.4375 C 208.386719 203.671875 207.199219 203.671875 207.199219 204.4375 Z M 213.5625 204.4375 C 213.5625 207.609375 213.5625 210.785156 213.5625 213.960938 C 213.5625 213.976562 213.5625 213.996094 213.5625 214.011719 C 213.5625 214.410156 213.5625 214.808594 213.5625 215.207031 C 213.5625 215.972656 214.753906 215.972656 214.753906 215.207031 C 214.753906 214.808594 214.753906 214.410156 214.753906 214.011719 C 214.753906 210.820312 214.753906 207.628906 214.753906 204.4375 C 214.753906 204.351562 214.734375 204.277344 214.710938 204.214844 C 214.503906 203.683594 213.5625 203.753906 213.5625 204.4375 Z M 219.929688 204.4375 C 219.929688 207.628906 219.929688 210.820312 219.929688 214.011719 C 219.929688 214.410156 219.929688 214.808594 219.929688 215.207031 C 219.929688 215.972656 221.117188 215.972656 221.117188 215.207031 C 221.117188 214.808594 221.117188 214.410156 221.117188 214.011719 C 221.117188 210.820312 221.117188 207.628906 221.117188 204.4375 C 221.117188 203.671875 219.929688 203.671875 219.929688 204.4375 Z M 226.296875 204.4375 C 226.296875 208.027344 226.296875 211.617188 226.296875 215.207031 C 226.296875 215.972656 227.484375 215.972656 227.484375 215.207031 C 227.484375 211.617188 227.484375 208.027344 227.484375 204.4375 C 227.484375 203.671875 226.296875 203.671875 226.296875 204.4375 Z M 232.660156 204.4375 C 232.660156 208.027344 232.660156 211.617188 232.660156 215.207031 C 232.660156 215.972656 233.851562 215.972656 233.851562 215.207031 C 233.851562 211.617188 233.851562 208.027344 233.851562 204.4375 C 233.851562 203.671875 232.660156 203.671875 232.660156 204.4375 Z M 239.027344 204.4375 C 239.027344 208.027344 239.027344 211.617188 239.027344 215.207031 C 239.027344 215.972656 240.214844 215.972656 240.214844 215.207031 C 240.214844 211.617188 240.214844 208.027344 240.214844 204.4375 C 240.214844 203.671875 239.027344 203.671875 239.027344 204.4375 Z M 245.394531 204.4375 C 245.394531 208.027344 245.394531 211.617188 245.394531 215.207031 C 245.394531 215.972656 246.582031 215.972656 246.582031 215.207031 C 246.582031 211.617188 246.582031 208.027344 246.582031 204.4375 C 246.582031 203.671875 245.394531 203.671875 245.394531 204.4375 Z M 251.757812 204.4375 C 251.757812 208.027344 251.757812 211.617188 251.757812 215.207031 C 251.757812 215.972656 252.949219 215.972656 252.949219 215.207031 C 252.949219 211.617188 252.949219 208.027344 252.949219 204.4375 C 252.949219 203.671875 251.757812 203.671875 251.757812 204.4375 Z M 258.125 204.4375 C 258.125 208.027344 258.125 211.617188 258.125 215.207031 C 258.125 215.972656 259.3125 215.972656 259.3125 215.207031 C 259.3125 211.617188 259.3125 208.027344 259.3125 204.4375 C 259.3125 203.671875 258.125 203.671875 258.125 204.4375 Z M 258.125 204.4375 " fill-opacity="1" fill-rule="nonzero"/><g clip-path="url(#f37c4128e9)"><path fill="#da6220" d="M 186.785156 161.144531 C 186.785156 159.808594 186.785156 158.472656 186.785156 157.136719 C 186.101562 157.136719 185.414062 157.136719 184.730469 157.136719 C 183.964844 157.136719 183.964844 155.949219 184.730469 155.949219 C 185.414062 155.949219 186.101562 155.949219 186.785156 155.949219 C 186.785156 155.382812 186.785156 154.816406 186.785156 154.25 C 186.785156 153.484375 187.976562 153.484375 187.976562 154.25 C 187.976562 154.816406 187.976562 155.382812 187.976562 155.949219 C 188.660156 155.949219 189.34375 155.949219 190.03125 155.949219 C 190.796875 155.949219 190.796875 157.136719 190.03125 157.136719 C 189.34375 157.136719 188.660156 157.136719 187.976562 157.136719 C 187.976562 158.328125 187.976562 159.519531 187.976562 160.707031 L 228.8125 183.542969 L 147.058594 183.542969 Z M 242.46875 216.003906 L 236.996094 216.003906 L 236.996094 167.761719 C 237.984375 167.296875 238.929688 166.847656 239.820312 166.410156 L 239.820312 166.414062 C 240.675781 166.835938 241.5625 167.296875 242.46875 167.789062 Z M 240.214844 204.4375 C 240.214844 203.671875 239.027344 203.671875 239.027344 204.4375 C 239.027344 208.027344 239.027344 211.617188 239.027344 215.207031 C 239.027344 215.972656 240.214844 215.972656 240.214844 215.207031 C 240.214844 211.617188 240.214844 208.027344 240.214844 204.4375 Z M 137.171875 213.148438 C 137.171875 210.246094 137.171875 207.339844 137.171875 204.4375 C 137.171875 203.671875 138.359375 203.671875 138.359375 204.4375 C 138.359375 207.347656 138.359375 210.257812 138.359375 213.171875 C 138.726562 213.128906 139.09375 213.117188 139.460938 213.136719 L 139.460938 167.789062 C 138.554688 167.296875 137.667969 166.835938 136.8125 166.414062 L 136.8125 166.410156 C 135.925781 166.847656 134.976562 167.296875 133.988281 167.761719 L 133.988281 209.417969 C 135.445312 210.140625 136.660156 211.472656 137.171875 213.148438 Z M 189.578125 213.960938 L 189.578125 192.675781 L 195.175781 192.675781 L 195.175781 192.261719 C 195.175781 192.074219 195.164062 191.886719 195.148438 191.703125 C 195.144531 191.664062 195.140625 191.625 195.136719 191.582031 C 195.117188 191.417969 195.09375 191.257812 195.0625 191.097656 C 195.050781 191.035156 195.035156 190.972656 195.019531 190.910156 C 194.996094 190.800781 194.96875 190.695312 194.941406 190.589844 C 194.90625 190.46875 194.867188 190.351562 194.824219 190.230469 C 194.804688 190.175781 194.785156 190.117188 194.761719 190.0625 C 194.695312 189.890625 194.621094 189.722656 194.539062 189.554688 C 194.527344 189.53125 194.519531 189.507812 194.507812 189.480469 L 189.578125 189.480469 L 189.578125 186.144531 C 189.429688 186.128906 189.277344 186.125 189.128906 186.121094 C 189.09375 186.121094 189.0625 186.117188 189.03125 186.117188 L 185.335938 186.117188 C 185.152344 186.117188 184.96875 186.128906 184.789062 186.144531 L 184.789062 189.480469 L 179.863281 189.480469 C 179.863281 189.480469 179.863281 189.484375 179.863281 189.484375 C 179.765625 189.671875 179.679688 189.863281 179.605469 190.0625 C 179.582031 190.117188 179.5625 190.175781 179.542969 190.230469 C 179.5 190.351562 179.464844 190.46875 179.429688 190.589844 C 179.398438 190.695312 179.371094 190.800781 179.347656 190.910156 C 179.332031 190.972656 179.320312 191.035156 179.304688 191.097656 C 179.277344 191.257812 179.25 191.421875 179.234375 191.582031 C 179.226562 191.625 179.226562 191.664062 179.222656 191.703125 C 179.203125 191.886719 179.191406 192.070312 179.191406 192.261719 L 179.191406 192.675781 L 184.789062 192.675781 L 184.789062 213.960938 L 188.097656 213.960938 C 188.097656 210.785156 188.097656 207.609375 188.097656 204.4375 C 188.097656 203.671875 189.289062 203.671875 189.289062 204.4375 C 189.289062 207.609375 189.289062 210.785156 189.289062 213.960938 Z M 147.253906 221.074219 C 136.519531 221.074219 125.785156 221.074219 115.046875 221.074219 C 114.28125 221.074219 114.28125 222.265625 115.046875 222.265625 C 134.175781 222.265625 153.304688 222.265625 172.433594 222.265625 C 191.46875 222.265625 210.5 222.265625 229.53125 222.265625 C 231.746094 222.265625 233.964844 222.265625 236.183594 222.265625 C 236.582031 221.792969 237.042969 221.386719 237.546875 221.074219 C 226.480469 221.074219 215.414062 221.074219 204.351562 221.074219 C 185.316406 221.074219 166.285156 221.074219 147.253906 221.074219 Z M 261.738281 221.074219 C 255.296875 221.074219 248.859375 221.074219 242.417969 221.074219 C 242.945312 221.386719 243.429688 221.789062 243.847656 222.265625 C 249.808594 222.265625 255.773438 222.265625 261.738281 222.265625 C 262.503906 222.265625 262.503906 221.074219 261.738281 221.074219 Z M 224.1875 227.078125 C 224.925781 227.199219 225.652344 227.515625 226.328125 227.882812 C 226.4375 227.601562 226.570312 227.335938 226.71875 227.078125 C 225.875 227.078125 225.03125 227.078125 224.1875 227.078125 Z M 221.164062 228.269531 C 221.585938 227.648438 222.261719 227.214844 222.957031 227.078125 C 215.835938 227.078125 208.710938 227.078125 201.589844 227.078125 C 185.851562 227.078125 170.113281 227.078125 154.375 227.078125 C 145.496094 227.078125 136.617188 227.078125 127.738281 227.078125 C 126.972656 227.078125 126.972656 228.269531 127.738281 228.269531 C 143.558594 228.269531 159.378906 228.269531 175.195312 228.269531 C 190.519531 228.269531 205.84375 228.269531 221.164062 228.269531 Z M 235.390625 235.042969 C 223.132812 235.042969 210.875 235.042969 198.617188 235.042969 C 186.421875 235.042969 174.226562 235.042969 162.03125 235.042969 C 155.152344 235.042969 148.273438 235.042969 141.394531 235.042969 C 140.628906 235.042969 140.628906 236.234375 141.394531 236.234375 C 153.652344 236.234375 165.910156 236.234375 178.167969 236.234375 C 190.363281 236.234375 202.558594 236.234375 214.753906 236.234375 C 221.632812 236.234375 228.511719 236.234375 235.390625 236.234375 C 236.15625 236.234375 236.15625 235.042969 235.390625 235.042969 Z M 235.390625 235.042969 " fill-opacity="1" fill-rule="nonzero"/></g><g clip-path="url(#acdda235b3)"><path fill="#2a7c69" d="M 173.304688 195.65625 L 173.304688 213.960938 L 170.191406 213.960938 C 170.191406 210.785156 170.191406 207.609375 170.191406 204.4375 C 170.191406 203.671875 169 203.671875 169 204.4375 C 169 207.609375 169 210.785156 169 213.960938 L 163.824219 213.960938 C 163.824219 210.785156 163.824219 207.609375 163.824219 204.4375 C 163.824219 203.671875 162.636719 203.671875 162.636719 204.4375 C 162.636719 207.609375 162.636719 210.785156 162.636719 213.960938 L 159.660156 213.960938 L 159.660156 195.65625 C 159.660156 192.636719 162.105469 190.1875 165.128906 190.1875 L 167.832031 190.1875 C 170.855469 190.1875 173.304688 192.636719 173.304688 195.65625 Z M 209.242188 190.1875 L 206.535156 190.1875 C 203.515625 190.1875 201.066406 192.636719 201.066406 195.65625 L 201.066406 203.972656 C 201.410156 203.734375 202.019531 203.886719 202.019531 204.4375 C 202.019531 207.609375 202.019531 210.785156 202.019531 213.960938 L 207.199219 213.960938 C 207.199219 210.785156 207.199219 207.609375 207.199219 204.4375 C 207.199219 203.671875 208.386719 203.671875 208.386719 204.4375 C 208.386719 207.609375 208.386719 210.785156 208.386719 213.960938 L 213.5625 213.960938 C 213.5625 210.785156 213.5625 207.609375 213.5625 204.4375 C 213.5625 203.753906 214.503906 203.683594 214.710938 204.214844 L 214.710938 195.65625 C 214.710938 192.636719 212.261719 190.1875 209.242188 190.1875 Z M 253.507812 163.957031 C 255.902344 167.59375 256.859375 172.390625 256.074219 176.832031 C 252.25 173.609375 247.109375 170.296875 242.46875 167.789062 C 241.5625 167.296875 240.675781 166.835938 239.820312 166.414062 L 239.820312 166.410156 C 238.929688 166.847656 237.984375 167.296875 236.996094 167.761719 C 232.191406 170.027344 226.515625 172.660156 222.785156 175.800781 C 222 171.359375 222.957031 166.566406 225.351562 162.925781 C 226.441406 161.269531 227.828125 159.867188 229.386719 158.785156 C 226.160156 156.511719 222.777344 154.503906 219.277344 152.808594 C 222.308594 149.832031 226.480469 148.375 230.480469 148.898438 C 232.261719 149.132812 233.996094 149.761719 235.582031 150.710938 C 235.691406 146.726562 235.546875 142.738281 235.152344 138.777344 C 238.957031 140.265625 242.144531 143.621094 243.722656 147.785156 C 244.085938 148.75 244.359375 149.753906 244.546875 150.78125 C 246.160156 149.792969 247.933594 149.140625 249.757812 148.898438 C 253.753906 148.375 257.925781 149.832031 260.960938 152.808594 C 256.949219 154.753906 253.089844 157.097656 249.441406 159.796875 C 251.015625 160.882812 252.410156 162.289062 253.507812 163.957031 Z M 239.945312 161.460938 C 239.945312 159.128906 238.054688 157.238281 235.722656 157.238281 C 233.386719 157.238281 231.496094 159.128906 231.496094 161.460938 C 231.496094 163.792969 233.386719 165.683594 235.722656 165.683594 C 238.054688 165.683594 239.945312 163.792969 239.945312 161.460938 Z M 249.101562 156.882812 C 249.101562 154.550781 247.210938 152.660156 244.878906 152.660156 C 242.546875 152.660156 240.65625 154.550781 240.65625 156.882812 C 240.65625 159.214844 242.546875 161.105469 244.878906 161.105469 C 247.210938 161.105469 249.101562 159.214844 249.101562 156.882812 Z M 126.382812 158.785156 C 123.152344 156.511719 119.773438 154.503906 116.273438 152.808594 C 119.304688 149.832031 123.476562 148.375 127.472656 148.898438 C 129.257812 149.132812 130.992188 149.761719 132.574219 150.710938 C 132.683594 146.726562 132.542969 142.738281 132.148438 138.777344 C 135.949219 140.265625 139.140625 143.621094 140.714844 147.785156 C 141.078125 148.75 141.351562 149.753906 141.539062 150.78125 C 143.152344 149.792969 144.925781 149.140625 146.75 148.898438 C 150.75 148.375 154.921875 149.832031 157.953125 152.808594 C 153.941406 154.753906 150.082031 157.097656 146.433594 159.796875 C 148.007812 160.882812 149.402344 162.289062 150.5 163.957031 C 152.894531 167.59375 153.851562 172.390625 153.066406 176.832031 C 149.242188 173.609375 144.101562 170.296875 139.460938 167.789062 C 138.554688 167.296875 137.667969 166.835938 136.8125 166.414062 L 136.8125 166.410156 C 135.925781 166.847656 134.976562 167.296875 133.988281 167.761719 C 129.183594 170.027344 123.507812 172.660156 119.777344 175.800781 C 118.992188 171.359375 119.949219 166.566406 122.34375 162.925781 C 123.4375 161.269531 124.820312 159.867188 126.382812 158.785156 Z M 137.648438 156.882812 C 137.648438 159.214844 139.539062 161.105469 141.871094 161.105469 C 144.203125 161.105469 146.09375 159.214844 146.09375 156.882812 C 146.09375 154.550781 144.203125 152.660156 141.871094 152.660156 C 139.539062 152.660156 137.648438 154.550781 137.648438 156.882812 Z M 128.492188 161.460938 C 128.492188 163.792969 130.382812 165.683594 132.714844 165.683594 C 135.046875 165.683594 136.9375 163.792969 136.9375 161.460938 C 136.9375 159.128906 135.046875 157.238281 132.714844 157.238281 C 130.382812 157.238281 128.492188 159.128906 128.492188 161.460938 Z M 189.578125 186.144531 L 189.578125 189.480469 L 194.5 189.480469 C 193.566406 187.640625 191.734375 186.335938 189.578125 186.144531 Z M 179.191406 213.960938 L 181.734375 213.960938 C 181.734375 210.785156 181.734375 207.609375 181.734375 204.4375 C 181.734375 203.671875 182.921875 203.671875 182.921875 204.4375 C 182.921875 207.609375 182.921875 210.785156 182.921875 213.960938 L 184.789062 213.960938 L 184.789062 192.675781 L 179.191406 192.675781 Z M 189.578125 213.960938 L 194.464844 213.960938 C 194.464844 210.785156 194.464844 207.609375 194.464844 204.4375 C 194.464844 204.003906 194.84375 203.816406 195.175781 203.871094 L 195.175781 192.675781 L 189.578125 192.675781 Z M 179.863281 189.480469 L 184.789062 189.480469 L 184.789062 186.144531 C 184.96875 186.128906 185.152344 186.117188 185.335938 186.117188 C 182.945312 186.117188 180.878906 187.484375 179.863281 189.480469 Z M 189.03125 186.117188 C 189.0625 186.117188 189.09375 186.121094 189.128906 186.121094 C 189.09375 186.121094 189.0625 186.117188 189.03125 186.117188 Z M 252.292969 226.734375 C 251.878906 226.28125 251.34375 225.957031 250.78125 225.722656 C 249.335938 225.121094 247.664062 225.082031 246.195312 225.621094 C 245.914062 225.722656 245.636719 225.855469 245.378906 226.015625 C 245.355469 225.730469 245.324219 225.445312 245.269531 225.164062 C 245.0625 224.0625 244.546875 223.0625 243.847656 222.265625 C 243.429688 221.789062 242.945312 221.386719 242.417969 221.074219 C 241.503906 220.535156 240.472656 220.265625 239.441406 220.390625 C 238.773438 220.46875 238.128906 220.710938 237.546875 221.074219 C 237.042969 221.386719 236.582031 221.792969 236.183594 222.265625 C 235.234375 223.382812 234.625 224.878906 234.628906 226.4375 C 233.535156 225.019531 231.773438 224.292969 230.125 224.582031 C 228.746094 224.824219 227.484375 225.765625 226.71875 227.078125 C 226.570312 227.335938 226.4375 227.601562 226.328125 227.882812 C 225.652344 227.515625 224.925781 227.199219 224.1875 227.078125 C 223.8125 227.015625 223.429688 227 223.046875 227.0625 C 223.019531 227.066406 222.988281 227.074219 222.957031 227.078125 C 222.261719 227.214844 221.585938 227.648438 221.164062 228.269531 C 220.925781 228.621094 220.765625 229.03125 220.734375 229.480469 L 220.695312 230.695312 L 245.34375 230.578125 L 245.34375 230.539062 L 253.488281 230.539062 C 253.367188 229.191406 253.203125 227.734375 252.292969 226.734375 Z M 156.269531 213.722656 C 155.851562 213.339844 155.394531 213.003906 154.917969 212.730469 C 154.300781 212.378906 153.640625 212.121094 152.960938 211.964844 C 152.34375 211.824219 151.714844 211.765625 151.09375 211.800781 C 150.691406 211.828125 150.292969 211.890625 149.902344 211.996094 C 149.535156 212.09375 149.175781 212.230469 148.828125 212.402344 C 146.910156 213.367188 145.480469 215.273438 145.507812 217.636719 C 145.246094 216.914062 144.875 216.273438 144.425781 215.710938 C 144.15625 215.371094 143.859375 215.0625 143.539062 214.785156 C 142.386719 213.792969 140.941406 213.214844 139.460938 213.136719 C 139.09375 213.117188 138.726562 213.128906 138.359375 213.171875 C 137.984375 213.214844 137.613281 213.289062 137.246094 213.40625 C 137.226562 213.316406 137.199219 213.234375 137.171875 213.148438 C 136.660156 211.472656 135.445312 210.140625 133.988281 209.417969 C 133.476562 209.164062 132.933594 208.984375 132.382812 208.890625 C 132.253906 208.867188 132.125 208.851562 131.996094 208.839844 C 131.597656 208.800781 131.203125 208.800781 130.804688 208.835938 C 129.132812 208.980469 127.496094 209.769531 126.160156 210.933594 C 125.988281 210.796875 125.8125 210.675781 125.628906 210.566406 C 125.253906 210.339844 124.851562 210.171875 124.441406 210.058594 C 123.324219 209.75 122.113281 209.851562 121.066406 210.390625 C 120.367188 210.753906 119.75 211.308594 119.261719 211.984375 C 118.625 212.867188 118.207031 213.957031 118.117188 215.09375 C 118.105469 215.085938 118.089844 215.082031 118.074219 215.074219 C 117.230469 214.726562 115.910156 214.328125 114.90625 214.734375 C 112.492188 215.710938 112.695312 219.160156 112.695312 219.160156 L 158.3125 219.160156 L 158.3125 217.203125 C 158.152344 216.457031 157.855469 215.765625 157.457031 215.144531 C 157.125 214.617188 156.71875 214.140625 156.269531 213.722656 Z M 156.269531 213.722656 " fill-opacity="1" fill-rule="nonzero"/></g><g fill="#ff914d" fill-opacity="1"><g transform="translate(93.770226, 254.810681)"><g><path d="M 14.796875 -5.078125 C 15.972656 -5.078125 17.175781 -5.347656 18.40625 -5.890625 C 19.632812 -6.429688 20.921875 -7.335938 22.265625 -8.609375 L 25.328125 -5.1875 C 23.585938 -3.320312 21.707031 -1.910156 19.6875 -0.953125 C 17.675781 0.00390625 15.691406 0.484375 13.734375 0.484375 C 11.960938 0.484375 10.359375 0.125 8.921875 -0.59375 C 7.492188 -1.320312 6.3125 -2.300781 5.375 -3.53125 C 4.4375 -4.757812 3.769531 -6.1875 3.375 -7.8125 C 2.988281 -9.445312 2.941406 -11.1875 3.234375 -13.03125 C 3.535156 -14.875 4.144531 -16.601562 5.0625 -18.21875 C 5.976562 -19.84375 7.109375 -21.265625 8.453125 -22.484375 C 9.804688 -23.710938 11.320312 -24.679688 13 -25.390625 C 14.6875 -26.109375 16.414062 -26.46875 18.1875 -26.46875 C 19.832031 -26.46875 21.347656 -26.160156 22.734375 -25.546875 C 24.117188 -24.929688 25.410156 -23.914062 26.609375 -22.5 L 22.75 -18.546875 C 21.894531 -19.503906 21.03125 -20.148438 20.15625 -20.484375 C 19.28125 -20.816406 18.34375 -20.984375 17.34375 -20.984375 C 16.332031 -20.984375 15.347656 -20.773438 14.390625 -20.359375 C 13.429688 -19.941406 12.566406 -19.375 11.796875 -18.65625 C 11.023438 -17.945312 10.367188 -17.109375 9.828125 -16.140625 C 9.285156 -15.171875 8.929688 -14.132812 8.765625 -13.03125 C 8.585938 -11.925781 8.609375 -10.894531 8.828125 -9.9375 C 9.054688 -8.976562 9.445312 -8.132812 10 -7.40625 C 10.550781 -6.6875 11.238281 -6.117188 12.0625 -5.703125 C 12.882812 -5.285156 13.796875 -5.078125 14.796875 -5.078125 Z M 14.796875 -5.078125 "/></g></g></g><g fill="#ff914d" fill-opacity="1"><g transform="translate(119.20495, 254.810681)"><g><path d="M 5.890625 -26.09375 L 22.203125 -26.09375 L 21.390625 -21.015625 L 10.671875 -21.015625 L 9.9375 -16.3125 L 19.359375 -16.3125 L 18.546875 -11.234375 L 9.125 -11.234375 L 8.140625 -5.046875 L 18.84375 -5.046875 L 18.078125 0 L 1.765625 0 Z M 5.890625 -26.09375 "/></g></g></g><g fill="#ff914d" fill-opacity="1"><g transform="translate(138.897533, 254.810681)"><g><path d="M 20.328125 -14.203125 C 21.234375 -13.492188 21.898438 -12.582031 22.328125 -11.46875 C 22.753906 -10.351562 22.867188 -9.117188 22.671875 -7.765625 C 22.503906 -6.679688 22.132812 -5.664062 21.5625 -4.71875 C 21 -3.78125 20.304688 -2.960938 19.484375 -2.265625 C 18.671875 -1.566406 17.757812 -1.015625 16.75 -0.609375 C 15.738281 -0.203125 14.695312 0 13.625 0 L 1.765625 0 L 5.890625 -26.09375 L 17.375 -26.09375 C 18.351562 -26.09375 19.25 -25.898438 20.0625 -25.515625 C 20.875 -25.140625 21.539062 -24.632812 22.0625 -24 C 22.59375 -23.363281 22.972656 -22.613281 23.203125 -21.75 C 23.441406 -20.894531 23.488281 -19.976562 23.34375 -19 C 23.164062 -17.9375 22.8125 -17.003906 22.28125 -16.203125 C 21.757812 -15.410156 21.109375 -14.742188 20.328125 -14.203125 Z M 9.9375 -16.3125 L 15.828125 -16.3125 C 16.492188 -16.3125 17.085938 -16.539062 17.609375 -17 C 18.140625 -17.46875 18.46875 -18.035156 18.59375 -18.703125 C 18.71875 -19.359375 18.578125 -19.90625 18.171875 -20.34375 C 17.765625 -20.789062 17.226562 -21.015625 16.5625 -21.015625 L 10.671875 -21.015625 Z M 14.390625 -5.046875 C 14.765625 -5.046875 15.128906 -5.128906 15.484375 -5.296875 C 15.835938 -5.472656 16.15625 -5.703125 16.4375 -5.984375 C 16.71875 -6.265625 16.957031 -6.59375 17.15625 -6.96875 C 17.351562 -7.351562 17.488281 -7.753906 17.5625 -8.171875 C 17.6875 -9.023438 17.535156 -9.75 17.109375 -10.34375 C 16.691406 -10.9375 16.117188 -11.234375 15.390625 -11.234375 L 9.125 -11.234375 L 8.140625 -5.046875 Z M 14.390625 -5.046875 "/></g></g></g><g fill="#00bf63" fill-opacity="1"><g transform="translate(161.539756, 254.810681)"><g><path d="M 0.84375 -26.09375 L 19.734375 -26.09375 L 19.734375 -21.015625 L 13.0625 -21.015625 L 13.0625 0 L 7.515625 0 L 7.515625 -21.015625 L 0.84375 -21.015625 Z M 0.84375 -26.09375 "/></g></g></g><g fill="#00bf63" fill-opacity="1"><g transform="translate(181.968505, 254.810681)"><g><path d="M 14.0625 -26.46875 C 15.832031 -26.46875 17.5 -26.109375 19.0625 -25.390625 C 20.632812 -24.679688 22.003906 -23.710938 23.171875 -22.484375 C 24.335938 -21.265625 25.257812 -19.84375 25.9375 -18.21875 C 26.613281 -16.601562 26.953125 -14.875 26.953125 -13.03125 C 26.953125 -11.21875 26.613281 -9.488281 25.9375 -7.84375 C 25.257812 -6.195312 24.335938 -4.757812 23.171875 -3.53125 C 22.003906 -2.300781 20.632812 -1.320312 19.0625 -0.59375 C 17.5 0.125 15.832031 0.484375 14.0625 0.484375 C 12.289062 0.484375 10.617188 0.125 9.046875 -0.59375 C 7.484375 -1.320312 6.125 -2.300781 4.96875 -3.53125 C 3.8125 -4.757812 2.894531 -6.195312 2.21875 -7.84375 C 1.550781 -9.488281 1.21875 -11.21875 1.21875 -13.03125 C 1.21875 -14.875 1.550781 -16.601562 2.21875 -18.21875 C 2.894531 -19.84375 3.8125 -21.265625 4.96875 -22.484375 C 6.125 -23.710938 7.484375 -24.679688 9.046875 -25.390625 C 10.617188 -26.109375 12.289062 -26.46875 14.0625 -26.46875 Z M 14.0625 -5.078125 C 15.070312 -5.078125 16.015625 -5.285156 16.890625 -5.703125 C 17.773438 -6.117188 18.546875 -6.6875 19.203125 -7.40625 C 19.867188 -8.132812 20.390625 -8.976562 20.765625 -9.9375 C 21.148438 -10.894531 21.34375 -11.925781 21.34375 -13.03125 C 21.34375 -14.132812 21.148438 -15.171875 20.765625 -16.140625 C 20.390625 -17.109375 19.867188 -17.953125 19.203125 -18.671875 C 18.546875 -19.398438 17.773438 -19.972656 16.890625 -20.390625 C 16.015625 -20.804688 15.070312 -21.015625 14.0625 -21.015625 C 13.050781 -21.015625 12.101562 -20.804688 11.21875 -20.390625 C 10.34375 -19.972656 9.570312 -19.398438 8.90625 -18.671875 C 8.25 -17.953125 7.726562 -17.109375 7.34375 -16.140625 C 6.96875 -15.171875 6.78125 -14.132812 6.78125 -13.03125 C 6.78125 -11.925781 6.96875 -10.894531 7.34375 -9.9375 C 7.726562 -8.976562 8.25 -8.132812 8.90625 -7.40625 C 9.570312 -6.6875 10.34375 -6.117188 11.21875 -5.703125 C 12.101562 -5.285156 13.050781 -5.078125 14.0625 -5.078125 Z M 14.0625 -5.078125 "/></g></g></g><g fill="#00bf63" fill-opacity="1"><g transform="translate(209.979841, 254.810681)"><g><path d="M 16.484375 -26.09375 L 22.046875 -26.09375 L 22.046875 -9.421875 C 22.046875 -8.117188 21.773438 -6.863281 21.234375 -5.65625 C 20.703125 -4.457031 19.96875 -3.40625 19.03125 -2.5 C 18.101562 -1.59375 17.019531 -0.867188 15.78125 -0.328125 C 14.539062 0.210938 13.207031 0.484375 11.78125 0.484375 C 10.382812 0.484375 9.054688 0.210938 7.796875 -0.328125 C 6.546875 -0.867188 5.460938 -1.59375 4.546875 -2.5 C 3.628906 -3.40625 2.898438 -4.457031 2.359375 -5.65625 C 1.816406 -6.863281 1.546875 -8.117188 1.546875 -9.421875 L 1.546875 -26.09375 L 7.109375 -26.09375 L 7.109375 -10.53125 C 7.109375 -9.789062 7.226562 -9.09375 7.46875 -8.4375 C 7.71875 -7.789062 8.050781 -7.21875 8.46875 -6.71875 C 8.882812 -6.21875 9.378906 -5.816406 9.953125 -5.515625 C 10.535156 -5.222656 11.144531 -5.078125 11.78125 -5.078125 C 12.445312 -5.078125 13.0625 -5.222656 13.625 -5.515625 C 14.1875 -5.816406 14.679688 -6.21875 15.109375 -6.71875 C 15.535156 -7.21875 15.867188 -7.789062 16.109375 -8.4375 C 16.359375 -9.09375 16.484375 -9.789062 16.484375 -10.53125 Z M 16.484375 -26.09375 "/></g></g></g><g fill="#00bf63" fill-opacity="1"><g transform="translate(233.390096, 254.810681)"><g><path d="M 20.5 -18.328125 C 20.5 -17.492188 20.382812 -16.703125 20.15625 -15.953125 C 19.925781 -15.203125 19.597656 -14.515625 19.171875 -13.890625 C 18.753906 -13.265625 18.25 -12.710938 17.65625 -12.234375 C 17.070312 -11.753906 16.4375 -11.367188 15.75 -11.078125 L 24.40625 0 L 17.890625 0 L 9.828125 -10.53125 L 7.328125 -10.53125 L 7.328125 0 L 1.734375 0 L 1.734375 -26.09375 L 13 -26.09375 C 14.03125 -26.09375 15.003906 -25.890625 15.921875 -25.484375 C 16.835938 -25.085938 17.632812 -24.535156 18.3125 -23.828125 C 18.988281 -23.128906 19.519531 -22.304688 19.90625 -21.359375 C 20.300781 -20.421875 20.5 -19.410156 20.5 -18.328125 Z M 12.296875 -15.609375 C 13.003906 -15.609375 13.613281 -15.867188 14.125 -16.390625 C 14.644531 -16.921875 14.90625 -17.566406 14.90625 -18.328125 C 14.90625 -19.066406 14.644531 -19.695312 14.125 -20.21875 C 13.613281 -20.75 13.003906 -21.015625 12.296875 -21.015625 L 7.328125 -21.015625 L 7.328125 -15.609375 Z M 12.296875 -15.609375 "/></g></g></g><g fill="#00bf63" fill-opacity="1"><g transform="translate(258.530349, 254.810681)"><g><path d="M 18.328125 -13.4375 C 19.359375 -12.820312 20.144531 -12.035156 20.6875 -11.078125 C 21.226562 -10.117188 21.5 -9.015625 21.5 -7.765625 C 21.5 -6.585938 21.21875 -5.488281 20.65625 -4.46875 C 20.09375 -3.445312 19.296875 -2.546875 18.265625 -1.765625 C 17.328125 -1.054688 16.265625 -0.507812 15.078125 -0.125 C 13.890625 0.25 12.628906 0.453125 11.296875 0.484375 C 9.972656 0.484375 8.707031 0.300781 7.5 -0.0625 C 6.300781 -0.4375 5.238281 -0.992188 4.3125 -1.734375 C 2.90625 -2.785156 1.945312 -4.0625 1.4375 -5.5625 L 6.59375 -7.953125 C 6.59375 -7.703125 6.675781 -7.394531 6.84375 -7.03125 C 7.019531 -6.664062 7.289062 -6.3125 7.65625 -5.96875 C 8.019531 -5.625 8.492188 -5.328125 9.078125 -5.078125 C 9.671875 -4.835938 10.398438 -4.71875 11.265625 -4.71875 C 11.953125 -4.71875 12.554688 -4.800781 13.078125 -4.96875 C 13.609375 -5.144531 14.050781 -5.359375 14.40625 -5.609375 C 14.769531 -5.867188 15.039062 -6.164062 15.21875 -6.5 C 15.40625 -6.832031 15.5 -7.171875 15.5 -7.515625 C 15.5 -7.898438 15.367188 -8.265625 15.109375 -8.609375 C 14.847656 -8.953125 14.453125 -9.222656 13.921875 -9.421875 C 12.929688 -9.765625 11.890625 -10.050781 10.796875 -10.28125 C 9.710938 -10.519531 8.65625 -10.816406 7.625 -11.171875 C 6.59375 -11.523438 5.632812 -11.992188 4.75 -12.578125 C 3.863281 -13.171875 3.164062 -14 2.65625 -15.0625 C 2.1875 -15.988281 1.953125 -16.976562 1.953125 -18.03125 C 1.953125 -19.21875 2.226562 -20.363281 2.78125 -21.46875 C 3.332031 -22.570312 4.085938 -23.503906 5.046875 -24.265625 C 5.953125 -24.972656 6.96875 -25.515625 8.09375 -25.890625 C 9.226562 -26.273438 10.421875 -26.46875 11.671875 -26.46875 C 12.921875 -26.46875 14.113281 -26.28125 15.25 -25.90625 C 16.394531 -25.539062 17.421875 -25.003906 18.328125 -24.296875 C 19.210938 -23.628906 19.914062 -22.859375 20.4375 -21.984375 L 16.234375 -19.109375 C 15.722656 -19.816406 15.078125 -20.382812 14.296875 -20.8125 C 13.523438 -21.25 12.660156 -21.46875 11.703125 -21.46875 C 10.378906 -21.46875 9.351562 -21.171875 8.625 -20.578125 C 7.90625 -19.984375 7.546875 -19.210938 7.546875 -18.265625 C 7.546875 -17.816406 7.75 -17.421875 8.15625 -17.078125 C 8.5625 -16.734375 9.085938 -16.425781 9.734375 -16.15625 C 10.390625 -15.882812 11.117188 -15.644531 11.921875 -15.4375 C 12.734375 -15.226562 13.535156 -15.019531 14.328125 -14.8125 C 15.128906 -14.601562 15.882812 -14.390625 16.59375 -14.171875 C 17.3125 -13.953125 17.890625 -13.707031 18.328125 -13.4375 Z M 18.328125 -13.4375 "/></g></g></g><g fill="#440e0e" fill-opacity="1"><g transform="translate(122.687779, 270.253341)"><g><path d="M 1.21875 0 L 1.21875 -10.234375 L 8.984375 -10.234375 L 8.984375 -9.09375 L 2.609375 -9.09375 L 2.609375 -5.8125 L 8.546875 -5.8125 L 8.546875 -4.703125 L 2.609375 -4.703125 L 2.609375 -1.140625 L 9.28125 -1.140625 L 9.28125 0 Z M 1.21875 0 "/></g></g></g><g fill="#440e0e" fill-opacity="1"><g transform="translate(134.838029, 270.253341)"><g><path d="M 5.8125 0 L 3.703125 -3.21875 L 1.578125 0 L 0.171875 0 L 2.96875 -4.03125 L 0.296875 -7.859375 L 1.75 -7.859375 L 3.703125 -4.796875 L 5.65625 -7.859375 L 7.109375 -7.859375 L 4.4375 -4.046875 L 7.28125 0 Z M 5.8125 0 "/></g></g></g><g fill="#440e0e" fill-opacity="1"><g transform="translate(144.504923, 270.253341)"><g><path d="M 7.640625 -3.96875 C 7.640625 -1.226562 6.675781 0.140625 4.75 0.140625 C 3.539062 0.140625 2.726562 -0.3125 2.3125 -1.21875 L 2.28125 -1.21875 C 2.300781 -1.175781 2.3125 -0.765625 2.3125 0.015625 L 2.3125 3.09375 L 1 3.09375 L 1 -6.25 C 1 -7.0625 0.984375 -7.597656 0.953125 -7.859375 L 2.21875 -7.859375 C 2.226562 -7.835938 2.238281 -7.765625 2.25 -7.640625 C 2.257812 -7.523438 2.269531 -7.34375 2.28125 -7.09375 C 2.289062 -6.851562 2.296875 -6.6875 2.296875 -6.59375 L 2.328125 -6.59375 C 2.554688 -7.082031 2.863281 -7.4375 3.25 -7.65625 C 3.632812 -7.882812 4.132812 -8 4.75 -8 C 5.71875 -8 6.441406 -7.671875 6.921875 -7.015625 C 7.398438 -6.367188 7.640625 -5.351562 7.640625 -3.96875 Z M 6.28125 -3.9375 C 6.28125 -5.03125 6.128906 -5.8125 5.828125 -6.28125 C 5.535156 -6.75 5.066406 -6.984375 4.421875 -6.984375 C 3.898438 -6.984375 3.492188 -6.875 3.203125 -6.65625 C 2.910156 -6.4375 2.6875 -6.097656 2.53125 -5.640625 C 2.382812 -5.179688 2.3125 -4.578125 2.3125 -3.828125 C 2.3125 -2.796875 2.472656 -2.035156 2.796875 -1.546875 C 3.128906 -1.066406 3.664062 -0.828125 4.40625 -0.828125 C 5.050781 -0.828125 5.523438 -1.0625 5.828125 -1.53125 C 6.128906 -2.007812 6.28125 -2.8125 6.28125 -3.9375 Z M 6.28125 -3.9375 "/></g></g></g><g fill="#440e0e" fill-opacity="1"><g transform="translate(155.006871, 270.253341)"><g><path d="M 1 0 L 1 -10.78125 L 2.3125 -10.78125 L 2.3125 0 Z M 1 0 "/></g></g></g><g fill="#440e0e" fill-opacity="1"><g transform="translate(160.542103, 270.253341)"><g><path d="M 7.640625 -3.9375 C 7.640625 -2.5625 7.335938 -1.535156 6.734375 -0.859375 C 6.128906 -0.191406 5.253906 0.140625 4.109375 0.140625 C 2.953125 0.140625 2.082031 -0.207031 1.5 -0.90625 C 0.914062 -1.601562 0.625 -2.613281 0.625 -3.9375 C 0.625 -6.644531 1.796875 -8 4.140625 -8 C 5.347656 -8 6.234375 -7.664062 6.796875 -7 C 7.359375 -6.34375 7.640625 -5.320312 7.640625 -3.9375 Z M 6.28125 -3.9375 C 6.28125 -5.019531 6.117188 -5.804688 5.796875 -6.296875 C 5.472656 -6.785156 4.929688 -7.03125 4.171875 -7.03125 C 3.398438 -7.03125 2.84375 -6.78125 2.5 -6.28125 C 2.164062 -5.78125 2 -5 2 -3.9375 C 2 -2.894531 2.164062 -2.113281 2.5 -1.59375 C 2.832031 -1.082031 3.363281 -0.828125 4.09375 -0.828125 C 4.875 -0.828125 5.429688 -1.078125 5.765625 -1.578125 C 6.109375 -2.078125 6.28125 -2.863281 6.28125 -3.9375 Z M 6.28125 -3.9375 "/></g></g></g><g fill="#440e0e" fill-opacity="1"><g transform="translate(171.044048, 270.253341)"><g><path d="M 1.03125 0 L 1.03125 -6.03125 C 1.03125 -6.582031 1.015625 -7.191406 0.984375 -7.859375 L 2.21875 -7.859375 C 2.257812 -6.960938 2.28125 -6.425781 2.28125 -6.25 L 2.3125 -6.25 C 2.519531 -6.925781 2.757812 -7.382812 3.03125 -7.625 C 3.300781 -7.875 3.679688 -8 4.171875 -8 C 4.347656 -8 4.523438 -7.976562 4.703125 -7.9375 L 4.703125 -6.734375 C 4.523438 -6.785156 4.296875 -6.8125 4.015625 -6.8125 C 3.472656 -6.8125 3.054688 -6.578125 2.765625 -6.109375 C 2.484375 -5.640625 2.34375 -4.96875 2.34375 -4.09375 L 2.34375 0 Z M 1.03125 0 "/></g></g></g><g fill="#440e0e" fill-opacity="1"><g transform="translate(178.227584, 270.253341)"><g><path d="M 1 -9.53125 L 1 -10.78125 L 2.296875 -10.78125 L 2.296875 -9.53125 Z M 1 0 L 1 -7.859375 L 2.296875 -7.859375 L 2.296875 0 Z M 1 0 "/></g></g></g><g fill="#440e0e" fill-opacity="1"><g transform="translate(183.762816, 270.253341)"><g><path d="M 5.984375 0 L 5.984375 -4.984375 C 5.984375 -5.503906 5.929688 -5.90625 5.828125 -6.1875 C 5.734375 -6.46875 5.570312 -6.671875 5.34375 -6.796875 C 5.125 -6.929688 4.800781 -7 4.375 -7 C 3.738281 -7 3.238281 -6.78125 2.875 -6.34375 C 2.519531 -5.914062 2.34375 -5.316406 2.34375 -4.546875 L 2.34375 0 L 1.03125 0 L 1.03125 -6.1875 C 1.03125 -7.09375 1.015625 -7.648438 0.984375 -7.859375 L 2.21875 -7.859375 C 2.226562 -7.835938 2.234375 -7.769531 2.234375 -7.65625 C 2.242188 -7.550781 2.25 -7.429688 2.25 -7.296875 C 2.257812 -7.160156 2.269531 -6.898438 2.28125 -6.515625 L 2.296875 -6.515625 C 2.597656 -7.054688 2.945312 -7.4375 3.34375 -7.65625 C 3.738281 -7.882812 4.226562 -8 4.8125 -8 C 5.675781 -8 6.304688 -7.785156 6.703125 -7.359375 C 7.109375 -6.929688 7.3125 -6.222656 7.3125 -5.234375 L 7.3125 0 Z M 5.984375 0 "/></g></g></g><g fill="#440e0e" fill-opacity="1"><g transform="translate(194.264761, 270.253341)"><g><path d="M 3.984375 3.09375 C 3.117188 3.09375 2.429688 2.921875 1.921875 2.578125 C 1.421875 2.242188 1.097656 1.765625 0.953125 1.140625 L 2.265625 0.953125 C 2.347656 1.316406 2.539062 1.597656 2.84375 1.796875 C 3.144531 1.992188 3.535156 2.09375 4.015625 2.09375 C 5.316406 2.09375 5.96875 1.328125 5.96875 -0.203125 L 5.96875 -1.453125 L 5.953125 -1.453125 C 5.703125 -0.953125 5.363281 -0.570312 4.9375 -0.3125 C 4.507812 -0.0625 4.003906 0.0625 3.421875 0.0625 C 2.460938 0.0625 1.753906 -0.253906 1.296875 -0.890625 C 0.847656 -1.535156 0.625 -2.546875 0.625 -3.921875 C 0.625 -5.304688 0.863281 -6.328125 1.34375 -6.984375 C 1.832031 -7.648438 2.578125 -7.984375 3.578125 -7.984375 C 4.128906 -7.984375 4.609375 -7.851562 5.015625 -7.59375 C 5.429688 -7.34375 5.75 -6.984375 5.96875 -6.515625 L 5.984375 -6.515625 C 5.984375 -6.660156 5.992188 -6.910156 6.015625 -7.265625 C 6.035156 -7.628906 6.054688 -7.828125 6.078125 -7.859375 L 7.3125 -7.859375 C 7.28125 -7.597656 7.265625 -7.054688 7.265625 -6.234375 L 7.265625 -0.21875 C 7.265625 1.988281 6.171875 3.09375 3.984375 3.09375 Z M 5.96875 -3.921875 C 5.96875 -4.566406 5.878906 -5.117188 5.703125 -5.578125 C 5.535156 -6.046875 5.289062 -6.398438 4.96875 -6.640625 C 4.65625 -6.890625 4.296875 -7.015625 3.890625 -7.015625 C 3.222656 -7.015625 2.734375 -6.769531 2.421875 -6.28125 C 2.117188 -5.800781 1.96875 -5.015625 1.96875 -3.921875 C 1.96875 -2.847656 2.109375 -2.078125 2.390625 -1.609375 C 2.679688 -1.140625 3.175781 -0.90625 3.875 -0.90625 C 4.28125 -0.90625 4.644531 -1.023438 4.96875 -1.265625 C 5.289062 -1.515625 5.535156 -1.863281 5.703125 -2.3125 C 5.878906 -2.769531 5.96875 -3.304688 5.96875 -3.921875 Z M 5.96875 -3.921875 "/></g></g></g><g fill="#440e0e" fill-opacity="1"><g transform="translate(204.766706, 270.253341)"><g/></g></g><g fill="#440e0e" fill-opacity="1"><g transform="translate(211.129723, 270.253341)"><g><path d="M 5.75 -9.25 C 4.613281 -9.25 3.734375 -8.882812 3.109375 -8.15625 C 2.484375 -7.425781 2.171875 -6.429688 2.171875 -5.171875 C 2.171875 -3.910156 2.492188 -2.898438 3.140625 -2.140625 C 3.796875 -1.378906 4.6875 -1 5.8125 -1 C 7.238281 -1 8.316406 -1.707031 9.046875 -3.125 L 10.171875 -2.5625 C 9.753906 -1.675781 9.160156 -1.003906 8.390625 -0.546875 C 7.628906 -0.0859375 6.75 0.140625 5.75 0.140625 C 4.71875 0.140625 3.820312 -0.0703125 3.0625 -0.5 C 2.3125 -0.925781 1.738281 -1.535156 1.34375 -2.328125 C 0.945312 -3.128906 0.75 -4.078125 0.75 -5.171875 C 0.75 -6.796875 1.191406 -8.070312 2.078125 -9 C 2.960938 -9.925781 4.179688 -10.390625 5.734375 -10.390625 C 6.828125 -10.390625 7.738281 -10.175781 8.46875 -9.75 C 9.195312 -9.320312 9.734375 -8.6875 10.078125 -7.84375 L 8.765625 -7.421875 C 8.523438 -8.015625 8.140625 -8.46875 7.609375 -8.78125 C 7.085938 -9.09375 6.46875 -9.25 5.75 -9.25 Z M 5.75 -9.25 "/></g></g></g><g fill="#440e0e" fill-opacity="1"><g transform="translate(224.100507, 270.253341)"><g><path d="M 2 -3.65625 C 2 -2.75 2.1875 -2.050781 2.5625 -1.5625 C 2.9375 -1.070312 3.484375 -0.828125 4.203125 -0.828125 C 4.765625 -0.828125 5.21875 -0.941406 5.5625 -1.171875 C 5.90625 -1.398438 6.132812 -1.691406 6.25 -2.046875 L 7.40625 -1.71875 C 6.9375 -0.476562 5.867188 0.140625 4.203125 0.140625 C 3.035156 0.140625 2.144531 -0.203125 1.53125 -0.890625 C 0.925781 -1.585938 0.625 -2.617188 0.625 -3.984375 C 0.625 -5.273438 0.925781 -6.265625 1.53125 -6.953125 C 2.144531 -7.648438 3.015625 -8 4.140625 -8 C 6.453125 -8 7.609375 -6.609375 7.609375 -3.828125 L 7.609375 -3.65625 Z M 6.265625 -4.65625 C 6.191406 -5.476562 5.976562 -6.078125 5.625 -6.453125 C 5.28125 -6.835938 4.78125 -7.03125 4.125 -7.03125 C 3.488281 -7.03125 2.984375 -6.816406 2.609375 -6.390625 C 2.242188 -5.972656 2.046875 -5.394531 2.015625 -4.65625 Z M 6.265625 -4.65625 "/></g></g></g><g fill="#440e0e" fill-opacity="1"><g transform="translate(234.602452, 270.253341)"><g><path d="M 7.640625 -3.96875 C 7.640625 -1.226562 6.675781 0.140625 4.75 0.140625 C 4.15625 0.140625 3.660156 0.0351562 3.265625 -0.171875 C 2.878906 -0.390625 2.5625 -0.738281 2.3125 -1.21875 L 2.296875 -1.21875 C 2.296875 -1.070312 2.285156 -0.84375 2.265625 -0.53125 C 2.242188 -0.226562 2.226562 -0.0507812 2.21875 0 L 0.953125 0 C 0.984375 -0.257812 1 -0.800781 1 -1.625 L 1 -10.78125 L 2.3125 -10.78125 L 2.3125 -7.703125 C 2.3125 -7.390625 2.300781 -7.019531 2.28125 -6.59375 L 2.3125 -6.59375 C 2.550781 -7.09375 2.867188 -7.453125 3.265625 -7.671875 C 3.671875 -7.890625 4.164062 -8 4.75 -8 C 5.75 -8 6.476562 -7.664062 6.9375 -7 C 7.40625 -6.332031 7.640625 -5.320312 7.640625 -3.96875 Z M 6.28125 -3.921875 C 6.28125 -5.023438 6.132812 -5.8125 5.84375 -6.28125 C 5.550781 -6.757812 5.078125 -7 4.421875 -7 C 3.679688 -7 3.144531 -6.742188 2.8125 -6.234375 C 2.476562 -5.734375 2.3125 -4.9375 2.3125 -3.84375 C 2.3125 -2.8125 2.472656 -2.050781 2.796875 -1.5625 C 3.128906 -1.070312 3.664062 -0.828125 4.40625 -0.828125 C 5.0625 -0.828125 5.535156 -1.066406 5.828125 -1.546875 C 6.128906 -2.035156 6.28125 -2.828125 6.28125 -3.921875 Z M 6.28125 -3.921875 "/></g></g></g><g fill="#440e0e" fill-opacity="1"><g transform="translate(245.104397, 270.253341)"><g><path d="M 2.28125 -7.859375 L 2.28125 -2.875 C 2.28125 -2.351562 2.328125 -1.945312 2.421875 -1.65625 C 2.523438 -1.375 2.6875 -1.171875 2.90625 -1.046875 C 3.132812 -0.921875 3.46875 -0.859375 3.90625 -0.859375 C 4.53125 -0.859375 5.023438 -1.070312 5.390625 -1.5 C 5.753906 -1.9375 5.9375 -2.539062 5.9375 -3.3125 L 5.9375 -7.859375 L 7.234375 -7.859375 L 7.234375 -1.671875 C 7.234375 -0.765625 7.25 -0.207031 7.28125 0 L 6.046875 0 C 6.046875 -0.0195312 6.039062 -0.0820312 6.03125 -0.1875 C 6.03125 -0.300781 6.023438 -0.425781 6.015625 -0.5625 C 6.003906 -0.695312 5.992188 -0.957031 5.984375 -1.34375 L 5.96875 -1.34375 C 5.664062 -0.800781 5.316406 -0.414062 4.921875 -0.1875 C 4.535156 0.03125 4.046875 0.140625 3.453125 0.140625 C 2.597656 0.140625 1.96875 -0.0703125 1.5625 -0.5 C 1.164062 -0.925781 0.96875 -1.632812 0.96875 -2.625 L 0.96875 -7.859375 Z M 2.28125 -7.859375 "/></g></g></g></svg>